<svg width="23" height="15" viewBox="0 0 23 15" xmlns="http://www.w3.org/2000/svg"><title>Group 17</title><g fill="none" fill-rule="evenodd"><path d="M.194 8.437c-.251-.353-.26-.935-.018-1.304l3.822-5.81C4.478.593 5.578 0 6.445 0H20.63C21.939 0 23 1.055 23 2.377v10.246A2.368 2.368 0 0 1 20.63 15H6.445c-.87 0-1.988-.577-2.494-1.288L.194 8.437z" fill="#FAF000"/><path d="M9.579 6.077c.872 0 1.579-.689 1.579-1.539S10.45 3 9.578 3C8.708 3 8 3.689 8 4.538c0 .85.707 1.539 1.579 1.539zM16.579 12.077c.872 0 1.579-.689 1.579-1.539S17.45 9 16.578 9C15.708 9 15 9.689 15 10.538c0 .85.707 1.539 1.579 1.539z" stroke="#FD6462" stroke-width="1.579"/><path d="M9.373 10.986l7.248-7.98" stroke="#FD6462" stroke-width="1.579" stroke-linecap="round"/></g></svg>