<svg width="36" height="36" viewBox="0 0 36 36" xmlns="http://www.w3.org/2000/svg"><title>Podarochnii variant_hover</title><g fill="none" fill-rule="evenodd"><rect fill="#D03432" width="36" height="36" rx="6"/><g fill="#FAF000"><path d="M26 19v7.215a.788.788 0 0 1-.785.785h-13.43a.788.788 0 0 1-.785-.785V19H9.79a.792.792 0 0 1-.79-.781V14.78c0-.431.343-.781.782-.781h17.503a.79.79 0 0 1 .786.781v3.438a.779.779 0 0 1-.782.781h-.59.536z"/><path d="M17.669 13.953h2.119v12.714h-2.119z"/><path d="M13.933 13.572c1.761.798 4.358.747 4.358.747s-.221-2.334-1.22-3.903c-.927-1.457-2.875-1.86-4.054-.466-1.08 1.275-.53 2.966.916 3.622zM22.808 13.572c-1.76.798-4.357.747-4.357.747s.22-2.334 1.22-3.903c.927-1.457 2.875-1.86 4.054-.466 1.079 1.275.53 2.966-.917 3.622z"/></g></g></svg>