<svg width="36" height="36" viewBox="0 0 36 36" xmlns="http://www.w3.org/2000/svg"><title>Tverdii pereplet_hover</title><defs><path id="a" d="M0 2.86h3.284V.058H0z"/></defs><g fill="none" fill-rule="evenodd"><rect fill="#D03432" width="36" height="36" rx="6"/><path d="M25.514 27.587h-7.768v.983h7.768c.256 0 .464-.233.464-.49 0-.26-.208-.493-.464-.493" fill="#FF6564"/><path d="M11.874 9.032c-.98 0-1.874.95-1.874 1.93l.02 13.128a3 3 0 0 0 3 2.994h10.974c.556 0 1.006-.452 1.006-.994v-.048a.996.996 0 0 0-1.01-.994H12.13v-1.995h11.86c.558 0 1.01-.445 1.01-.935 0 0 0 .31 0 0V11.143c0-1.79-1.618-2.11-1.933-2.11H11.874z" fill="#FAF000"/></g></svg>