<?xml version="1.0" encoding="UTF-8" standalone="no"?>
<svg width="162px" height="67px" viewBox="0 0 162 67" version="1.1" xmlns="http://www.w3.org/2000/svg" xmlns:xlink="http://www.w3.org/1999/xlink">
    <!-- Generator: Sketch 3.7.1 (28215) - http://www.bohemiancoding.com/sketch -->
    <title>bubble copy 4</title>
    <desc>Created with Sketch.</desc>
    <defs></defs>
    <g id="Главная-страница" stroke="none" stroke-width="1" fill="none" fill-rule="evenodd">
        <g id="1920_Index_neavtorizovan" transform="translate(-250.000000, -2703.000000)">
            <g id="podpiska" transform="translate(-2.000000, 2523.000000)">
                <g id="bg">
                    <g id="bubble-copy-4" transform="translate(253.000000, 182.000000)">
                        <path d="M142.493039,57.3746834 C144.76489,60.1501783 148.441946,63.0000004 153.963415,63 C164.725657,62.9999992 159,63 159,63 C159,63 154.682927,58 154.682927,54.4285714 C154.682927,51.7348647 154.682927,41.9993486 154.682927,37.3768037 C154.89183,35.9478067 155,34.4861019 155,32.9991303 L155,30.0008697 C155,13.4378072 141.568046,0 124.998891,0 L31.001109,0 C14.4306412,0 1,13.4318469 1,30.0008697 L1,32.9991303 C1,49.5621928 14.431954,63 31.001109,63 L124.998891,63 C131.527441,63 137.568608,60.9150309 142.493039,57.3746834 Z" id="Path-169-Copy" stroke="#5B7AAA" stroke-width="3"></path>
                        <path d="M38.1255693,27 L36.1641435,27 L36.1641435,19.3574219 L32.7491044,19.3574219 L32.7491044,27 L30.781331,27 L30.781331,17.7197266 L38.1255693,17.7197266 L38.1255693,27 Z M42.9447697,21.1474609 C42.5342858,21.1474609 42.2126745,21.2775866 41.9799259,21.5378418 C41.7471773,21.798097 41.6138779,22.1673153 41.5800236,22.6455078 L44.2968204,22.6455078 C44.2883568,22.1673153 44.1635209,21.798097 43.9223087,21.5378418 C43.6810966,21.2775866 43.3552535,21.1474609 42.9447697,21.1474609 L42.9447697,21.1474609 Z M43.2177189,27.1269531 C42.075135,27.1269531 41.1822403,26.8116894 40.5390079,26.1811523 C39.8957755,25.5506153 39.5741642,24.6577206 39.5741642,23.5024414 C39.5741642,22.3133079 39.8714431,21.3939648 40.4660099,20.7443848 C41.0605767,20.0948047 41.8825899,19.7700195 42.9320743,19.7700195 C43.935009,19.7700195 44.715763,20.0556612 45.2743595,20.6269531 C45.832956,21.198245 46.1122501,21.9874624 46.1122501,22.9946289 L46.1122501,23.934082 L41.53559,23.934082 C41.5567489,24.484215 41.7196705,24.9137354 42.0243595,25.2226562 C42.3290485,25.5315771 42.7564531,25.6860352 43.3065861,25.6860352 C43.733997,25.6860352 44.1381271,25.641602 44.5189884,25.5527344 C44.8998497,25.4638667 45.2976322,25.3221038 45.7123478,25.1274414 L45.7123478,26.6254883 C45.3738044,26.79476 45.0119916,26.9206539 44.6268986,27.0031738 C44.2418055,27.0856938 43.7720836,27.1269531 43.2177189,27.1269531 L43.2177189,27.1269531 Z M51.2742239,27.1269531 C50.4405609,27.1269531 49.7867588,26.8243845 49.3127981,26.2192383 L49.2112356,26.2192383 C49.2789443,26.8116892 49.3127981,27.1544592 49.3127981,27.2475586 L49.3127981,30.1230469 L47.376763,30.1230469 L47.376763,19.9033203 L48.9509817,19.9033203 L49.223931,20.8237305 L49.3127981,20.8237305 C49.7655999,20.121253 50.4363289,19.7700195 51.3250052,19.7700195 C52.1629,19.7700195 52.8188179,20.0937468 53.2927786,20.7412109 C53.7667393,21.3886751 54.0037161,22.2879174 54.0037161,23.4389648 C54.0037161,24.1964556 53.8926332,24.8544894 53.6704642,25.4130859 C53.4482951,25.9716825 53.1319734,26.3969712 52.7214895,26.6889648 C52.3110057,26.9809585 51.8285887,27.1269531 51.2742239,27.1269531 L51.2742239,27.1269531 Z M50.7029349,21.3188477 C50.2247424,21.3188477 49.8756248,21.4659002 49.6555716,21.7600098 C49.4355184,22.0541193 49.3212617,22.5397102 49.3127981,23.2167969 L49.3127981,23.4262695 C49.3127981,24.1879921 49.4259969,24.7338851 49.6523978,25.0639648 C49.8787986,25.3940446 50.2374376,25.559082 50.7283255,25.559082 C51.5958428,25.559082 52.029595,24.8439199 52.029595,23.4135742 C52.029595,22.7153285 51.9227439,22.1916521 51.7090384,21.8425293 C51.4953329,21.4934065 51.1599684,21.3188477 50.7029349,21.3188477 L50.7029349,21.3188477 Z M58.1754555,27.1269531 C55.9664601,27.1269531 54.861979,25.9145629 54.861979,23.4897461 C54.861979,22.2836854 55.1624317,21.3622265 55.7633462,20.7253418 C56.3642606,20.0884571 57.2254174,19.7700195 58.3468423,19.7700195 C59.1678099,19.7700195 59.9041307,19.9308252 60.5558266,20.2524414 L59.9845376,21.7504883 C59.6798485,21.6277663 59.3963227,21.5272628 59.1339516,21.4489746 C58.8715805,21.3706865 58.6092134,21.331543 58.3468423,21.331543 C57.3396758,21.331543 56.8361001,22.0467051 56.8361001,23.4770508 C56.8361001,24.8650786 57.3396758,25.559082 58.3468423,25.559082 C58.71924,25.559082 59.0641258,25.5093592 59.3815102,25.4099121 C59.6988946,25.310465 60.0162743,25.154949 60.3336587,24.9433594 L60.3336587,26.6000977 C60.0205061,26.7989919 59.7041844,26.9365231 59.3846841,27.0126953 C59.0651838,27.0888676 58.6621116,27.1269531 58.1754555,27.1269531 L58.1754555,27.1269531 Z M63.2104762,23.4389648 C63.2104762,24.1414423 63.3257908,24.6725242 63.5564235,25.0322266 C63.7870561,25.3919289 64.1626221,25.5717773 64.6831325,25.5717773 C65.1994111,25.5717773 65.5707453,25.3929868 65.7971461,25.0354004 C66.023547,24.677814 66.1367458,24.1456741 66.1367458,23.4389648 C66.1367458,22.7364874 66.0224891,22.2096372 65.7939723,21.8583984 C65.5654555,21.5071597 65.1909476,21.331543 64.6704372,21.331543 C64.1541585,21.331543 63.7817664,21.5061018 63.5532497,21.8552246 C63.3247329,22.2043474 63.2104762,22.7322556 63.2104762,23.4389648 L63.2104762,23.4389648 Z M68.1172145,23.4389648 C68.1172145,24.5942441 67.81253,25.4977181 67.203152,26.1494141 C66.593774,26.80111 65.7453124,27.1269531 64.6577418,27.1269531 C63.9764233,27.1269531 63.3755179,26.9777847 62.8550075,26.6794434 C62.3344971,26.381102 61.9345987,25.9526395 61.6553004,25.394043 C61.3760022,24.8354464 61.2363551,24.1837602 61.2363551,23.4389648 C61.2363551,22.2794538 61.5389237,21.3780957 62.14407,20.7348633 C62.7492162,20.0916309 63.5997937,19.7700195 64.6958278,19.7700195 C65.3771463,19.7700195 65.9780517,19.91813 66.4985622,20.2143555 C67.0190726,20.5105809 67.4189709,20.9358696 67.6982692,21.4902344 C67.9775675,22.0445991 68.1172145,22.6941695 68.1172145,23.4389648 L68.1172145,23.4389648 Z M71.3431531,19.9033203 L71.3431531,22.6328125 L74.0472547,22.6328125 L74.0472547,19.9033203 L75.9832899,19.9033203 L75.9832899,27 L74.0472547,27 L74.0472547,24.0737305 L71.3431531,24.0737305 L71.3431531,27 L69.407118,27 L69.407118,19.9033203 L71.3431531,19.9033203 Z M82.2116699,27 L81.8371582,26.0351562 L81.786377,26.0351562 C81.460529,26.4456401 81.1251645,26.7302238 80.7802734,26.888916 C80.4353824,27.0476082 79.9857612,27.1269531 79.4313965,27.1269531 C78.750078,27.1269531 78.2137064,26.9322936 77.8222656,26.5429688 C77.4308249,26.1536439 77.2351074,25.5992875 77.2351074,24.8798828 C77.2351074,24.1266238 77.4985325,23.5712095 78.0253906,23.213623 C78.5522487,22.8560366 79.3467558,22.6582033 80.4089355,22.6201172 L81.6403809,22.5820312 L81.6403809,22.2709961 C81.6403809,21.5515915 81.2722205,21.1918945 80.5358887,21.1918945 C79.9688285,21.1918945 79.3023313,21.3632795 78.536377,21.7060547 L77.8952637,20.3984375 C78.7119995,19.9710265 79.6175894,19.7573242 80.6120605,19.7573242 C81.5642137,19.7573242 82.2941869,19.9646789 82.802002,20.3793945 C83.309817,20.7941101 83.5637207,21.4246377 83.5637207,22.2709961 L83.5637207,27 L82.2116699,27 Z M81.6403809,23.7119141 L80.8913574,23.7373047 C80.3285291,23.7542319 79.909588,23.8557933 79.6345215,24.0419922 C79.359455,24.228191 79.2219238,24.5117168 79.2219238,24.8925781 C79.2219238,25.4384793 79.5350717,25.7114258 80.161377,25.7114258 C80.6099469,25.7114258 80.9685859,25.5823581 81.2373047,25.3242188 C81.5060235,25.0660794 81.6403809,24.7233094 81.6403809,24.2958984 L81.6403809,23.7119141 Z M91.6011828,27 L89.6651476,27 L89.6651476,21.3569336 L87.8814562,21.3569336 C87.7460389,22.9438556 87.5810015,24.1276816 87.386339,24.9084473 C87.1916766,25.6892129 86.9324832,26.2541486 86.6087511,26.6032715 C86.2850191,26.9523943 85.8607883,27.1269531 85.3360461,27.1269531 C84.8874761,27.1269531 84.5193157,27.0592455 84.2315539,26.9238281 L84.2315539,25.375 C84.4389117,25.4596358 84.6462664,25.5019531 84.8536242,25.5019531 C85.0948363,25.5019531 85.2969014,25.3284523 85.4598254,24.9814453 C85.6227494,24.6344384 85.768744,24.0557495 85.8978136,23.2453613 C86.0268833,22.4349732 86.1379662,21.3209706 86.2310656,19.9033203 L91.6011828,19.9033203 L91.6011828,27 Z M95.2587621,22.6455078 L96.6235082,22.6455078 C97.7153105,22.6455078 98.5235706,22.8190087 99.0483128,23.1660156 C99.573055,23.5130226 99.8354222,24.0377569 99.8354222,24.7402344 C99.8354222,26.2467523 98.7901853,27 96.69968,27 L93.3227269,27 L93.3227269,19.9033203 L95.2587621,19.9033203 L95.2587621,22.6455078 Z M97.8993871,24.765625 C97.8993871,24.4905585 97.7893621,24.2916673 97.5693089,24.1689453 C97.3492558,24.0462233 97.0212968,23.9848633 96.5854222,23.9848633 L95.2587621,23.9848633 L95.2587621,25.6606445 L96.6108128,25.6606445 C97.4698666,25.6606445 97.8993871,25.3623077 97.8993871,24.765625 L97.8993871,24.765625 Z M102.92806,19.9033203 L102.92806,22.6328125 L105.632162,22.6328125 L105.632162,19.9033203 L107.568197,19.9033203 L107.568197,27 L105.632162,27 L105.632162,24.0737305 L102.92806,24.0737305 L102.92806,27 L100.992025,27 L100.992025,19.9033203 L102.92806,19.9033203 Z M111.225776,22.6455078 L112.158882,22.6455078 C113.24222,22.6455078 114.044133,22.8190087 114.564643,23.1660156 C115.085154,23.5130226 115.345405,24.0377569 115.345405,24.7402344 C115.345405,25.4892616 115.085154,26.0531394 114.564643,26.4318848 C114.044133,26.8106301 113.265495,27 112.228706,27 L109.289741,27 L109.289741,19.9033203 L111.225776,19.9033203 L111.225776,22.6455078 Z M113.40937,24.765625 C113.40937,24.4905585 113.299345,24.2916673 113.079292,24.1689453 C112.859239,24.0462233 112.53128,23.9848633 112.095405,23.9848633 L111.225776,23.9848633 L111.225776,25.6606445 L112.120796,25.6606445 C112.979849,25.6606445 113.40937,25.3623077 113.40937,24.765625 L113.40937,24.765625 Z M118.30976,27 L116.373725,27 L116.373725,19.9033203 L118.30976,19.9033203 L118.30976,27 Z M122.970269,21.1474609 C122.559786,21.1474609 122.238174,21.2775866 122.005426,21.5378418 C121.772677,21.798097 121.639378,22.1673153 121.605523,22.6455078 L124.32232,22.6455078 C124.313857,22.1673153 124.189021,21.798097 123.947808,21.5378418 C123.706596,21.2775866 123.380753,21.1474609 122.970269,21.1474609 L122.970269,21.1474609 Z M123.243219,27.1269531 C122.100635,27.1269531 121.20774,26.8116894 120.564508,26.1811523 C119.921275,25.5506153 119.599664,24.6577206 119.599664,23.5024414 C119.599664,22.3133079 119.896943,21.3939648 120.49151,20.7443848 C121.086076,20.0948047 121.90809,19.7700195 122.957574,19.7700195 C123.960509,19.7700195 124.741263,20.0556612 125.299859,20.6269531 C125.858456,21.198245 126.13775,21.9874624 126.13775,22.9946289 L126.13775,23.934082 L121.56109,23.934082 C121.582249,24.484215 121.74517,24.9137354 122.049859,25.2226562 C122.354548,25.5315771 122.781953,25.6860352 123.332086,25.6860352 C123.759497,25.6860352 124.163627,25.641602 124.544488,25.5527344 C124.925349,25.4638667 125.323132,25.3221038 125.737848,25.1274414 L125.737848,26.6254883 C125.399304,26.79476 125.037491,26.9206539 124.652398,27.0031738 C124.267305,27.0856938 123.797583,27.1269531 123.243219,27.1269531 L123.243219,27.1269531 Z M33.1902665,45.1269531 C32.3566035,45.1269531 31.7028015,44.8243845 31.2288408,44.2192383 L31.1272783,44.2192383 C31.1949869,44.8116892 31.2288408,45.1544592 31.2288408,45.2475586 L31.2288408,48.1230469 L29.2928056,48.1230469 L29.2928056,37.9033203 L30.8670244,37.9033203 L31.1399736,38.8237305 L31.2288408,38.8237305 C31.6816425,38.121253 32.3523715,37.7700195 33.2410478,37.7700195 C34.0789426,37.7700195 34.7348605,38.0937468 35.2088212,38.7412109 C35.6827819,39.3886751 35.9197587,40.2879174 35.9197587,41.4389648 C35.9197587,42.1964556 35.8086759,42.8544894 35.5865068,43.4130859 C35.3643377,43.9716825 35.048016,44.3969712 34.6375322,44.6889648 C34.2270484,44.9809585 33.7446313,45.1269531 33.1902665,45.1269531 L33.1902665,45.1269531 Z M32.6189775,39.3188477 C32.140785,39.3188477 31.7916674,39.4659002 31.5716142,39.7600098 C31.351561,40.0541193 31.2373044,40.5397102 31.2288408,41.2167969 L31.2288408,41.4262695 C31.2288408,42.1879921 31.3420395,42.7338851 31.5684404,43.0639648 C31.7948412,43.3940446 32.1534802,43.559082 32.6443681,43.559082 C33.5118855,43.559082 33.9456376,42.8439199 33.9456376,41.4135742 C33.9456376,40.7153285 33.8387865,40.1916521 33.625081,39.8425293 C33.4113755,39.4934065 33.076011,39.3188477 32.6189775,39.3188477 L32.6189775,39.3188477 Z M40.1486271,39.1474609 C39.7381432,39.1474609 39.4165319,39.2775866 39.1837833,39.5378418 C38.9510348,39.798097 38.8177353,40.1673153 38.783881,40.6455078 L41.5006779,40.6455078 C41.4922143,40.1673153 41.3673783,39.798097 41.1261661,39.5378418 C40.884954,39.2775866 40.5591109,39.1474609 40.1486271,39.1474609 L40.1486271,39.1474609 Z M40.4215763,45.1269531 C39.2789925,45.1269531 38.3860977,44.8116894 37.7428654,44.1811523 C37.099633,43.5506153 36.7780216,42.6577206 36.7780216,41.5024414 C36.7780216,40.3133079 37.0753005,39.3939648 37.6698673,38.7443848 C38.2644341,38.0948047 39.0864473,37.7700195 40.1359318,37.7700195 C41.1388665,37.7700195 41.9196204,38.0556612 42.4782169,38.6269531 C43.0368135,39.198245 43.3161075,39.9874624 43.3161075,40.9946289 L43.3161075,41.934082 L38.7394474,41.934082 C38.7606063,42.484215 38.9235279,42.9137354 39.2282169,43.2226562 C39.5329059,43.5315771 39.9603105,43.6860352 40.5104435,43.6860352 C40.9378545,43.6860352 41.3419845,43.641602 41.7228458,43.5527344 C42.1037071,43.4638667 42.5014896,43.3221038 42.9162052,43.1274414 L42.9162052,44.6254883 C42.5776618,44.79476 42.2158491,44.9206539 41.830756,45.0031738 C41.4456629,45.0856938 40.975941,45.1269531 40.4215763,45.1269531 L40.4215763,45.1269531 Z M49.2334524,37.9033203 L51.3662649,37.9033203 L48.5542532,41.3056641 L51.6138235,45 L49.4175345,45 L46.5166556,41.4008789 L46.5166556,45 L44.5806204,45 L44.5806204,37.9033203 L46.5166556,37.9033203 L46.5166556,41.3500977 L49.2334524,37.9033203 Z M53.6019692,41.4389648 C53.6019692,42.1414423 53.7172838,42.6725242 53.9479165,43.0322266 C54.1785491,43.3919289 54.554115,43.5717773 55.0746255,43.5717773 C55.5909041,43.5717773 55.9622383,43.3929868 56.1886391,43.0354004 C56.41504,42.677814 56.5282387,42.1456741 56.5282387,41.4389648 C56.5282387,40.7364874 56.4139821,40.2096372 56.1854653,39.8583984 C55.9569485,39.5071597 55.5824406,39.331543 55.0619301,39.331543 C54.5456515,39.331543 54.1732594,39.5061018 53.9447426,39.8552246 C53.7162259,40.2043474 53.6019692,40.7322556 53.6019692,41.4389648 L53.6019692,41.4389648 Z M58.5087075,41.4389648 C58.5087075,42.5942441 58.204023,43.4977181 57.594645,44.1494141 C56.9852669,44.80111 56.1368054,45.1269531 55.0492348,45.1269531 C54.3679163,45.1269531 53.7670109,44.9777847 53.2465005,44.6794434 C52.72599,44.381102 52.3260917,43.9526395 52.0467934,43.394043 C51.7674952,42.8354464 51.6278481,42.1837602 51.6278481,41.4389648 C51.6278481,40.2794538 51.9304167,39.3780957 52.535563,38.7348633 C53.1407092,38.0916309 53.9912866,37.7700195 55.0873208,37.7700195 C55.7686393,37.7700195 56.3695447,37.91813 56.8900551,38.2143555 C57.4105656,38.5105809 57.8104639,38.9358696 58.0897622,39.4902344 C58.3690605,40.0445991 58.5087075,40.6941695 58.5087075,41.4389648 L58.5087075,41.4389648 Z M68.7424586,45 L66.9333766,45 L66.9333766,39.4077148 L66.8318141,39.8012695 C66.6032973,40.6941776 66.3980585,41.3691383 66.2160915,41.8261719 L64.9592555,45 L63.5818141,45 L62.3059352,41.8007812 C62.1239681,41.3352841 61.9293086,40.6814821 61.7219508,39.8393555 L61.6013454,39.4077148 L61.6013454,45 L59.798611,45 L59.798611,37.9033203 L62.4646266,37.9033203 L63.6833766,40.9311523 C63.8103304,41.2570003 63.9277608,41.6315083 64.0356715,42.0546875 C64.1435822,42.4778667 64.2165795,42.8396795 64.2546657,43.1401367 C64.3943148,42.5053679 64.5032818,42.0493992 64.58157,41.7722168 C64.6598581,41.4950344 64.7455506,41.2400728 64.83865,41.0073242 C64.9317495,40.7745757 65.3528065,39.739918 66.1018336,37.9033203 L68.7424586,37.9033203 L68.7424586,45 Z M73.4029676,39.1474609 C72.9924838,39.1474609 72.6708724,39.2775866 72.4381239,39.5378418 C72.2053753,39.798097 72.0720758,40.1673153 72.0382215,40.6455078 L74.7550184,40.6455078 C74.7465548,40.1673153 74.6217188,39.798097 74.3805067,39.5378418 C74.1392945,39.2775866 73.8134514,39.1474609 73.4029676,39.1474609 L73.4029676,39.1474609 Z M73.6759168,45.1269531 C72.533333,45.1269531 71.6404383,44.8116894 70.9972059,44.1811523 C70.3539735,43.5506153 70.0323621,42.6577206 70.0323621,41.5024414 C70.0323621,40.3133079 70.3296411,39.3939648 70.9242078,38.7443848 C71.5187746,38.0948047 72.3407879,37.7700195 73.3902723,37.7700195 C74.393207,37.7700195 75.1739609,38.0556612 75.7325574,38.6269531 C76.291154,39.198245 76.5704481,39.9874624 76.5704481,40.9946289 L76.5704481,41.934082 L71.9937879,41.934082 C72.0149469,42.484215 72.1778684,42.9137354 72.4825574,43.2226562 C72.7872465,43.5315771 73.214651,43.6860352 73.764784,43.6860352 C74.192195,43.6860352 74.5963251,43.641602 74.9771864,43.5527344 C75.3580476,43.4638667 75.7558301,43.3221038 76.1705457,43.1274414 L76.1705457,44.6254883 C75.8320024,44.79476 75.4701896,44.9206539 75.0850965,45.0031738 C74.7000034,45.0856938 74.2302816,45.1269531 73.6759168,45.1269531 L73.6759168,45.1269531 Z M79.7709961,37.9033203 L79.7709961,40.6328125 L82.4750977,40.6328125 L82.4750977,37.9033203 L84.4111328,37.9033203 L84.4111328,45 L82.4750977,45 L82.4750977,42.0737305 L79.7709961,42.0737305 L79.7709961,45 L77.8349609,45 L77.8349609,37.9033203 L79.7709961,37.9033203 Z M90.5760363,43.5844727 L90.5760363,39.3569336 L89.122423,39.3569336 C89.0166282,40.1440469 88.8716915,40.890947 88.6876086,41.5976562 C88.5035256,42.3043655 88.248564,42.966631 87.922716,43.5844727 L90.5760363,43.5844727 Z M93.5530871,47.5454102 L91.8138293,47.5454102 L91.8138293,45 L87.0403918,45 L87.0403918,47.5454102 L85.301134,47.5454102 L85.301134,43.5844727 L85.8978136,43.5844727 C86.3040657,42.9539356 86.6447198,42.1583707 86.9197863,41.1977539 C87.1948528,40.2371371 87.3873964,39.1390036 87.497423,37.9033203 L92.5120715,37.9033203 L92.5120715,43.5844727 L93.5530871,43.5844727 L93.5530871,47.5454102 Z M98.9626195,45 L98.5881078,44.0351562 L98.5373265,44.0351562 C98.2114785,44.4456401 97.876114,44.7302238 97.531223,44.888916 C97.186332,45.0476082 96.7367108,45.1269531 96.182346,45.1269531 C95.5010275,45.1269531 94.9646559,44.9322936 94.5732152,44.5429688 C94.1817744,44.1536439 93.986057,43.5992875 93.986057,42.8798828 C93.986057,42.1266238 94.2494821,41.5712095 94.7763402,41.213623 C95.3031983,40.8560366 96.0977053,40.6582033 97.1598851,40.6201172 L98.3913304,40.5820312 L98.3913304,40.2709961 C98.3913304,39.5515915 98.02317,39.1918945 97.2868382,39.1918945 C96.7197781,39.1918945 96.0532809,39.3632795 95.2873265,39.7060547 L94.6462132,38.3984375 C95.4629491,37.9710265 96.368539,37.7573242 97.3630101,37.7573242 C98.3151633,37.7573242 99.0451365,37.9646789 99.5529515,38.3793945 C100.060767,38.7941101 100.31467,39.4246377 100.31467,40.2709961 L100.31467,45 L98.9626195,45 Z M98.3913304,41.7119141 L97.642307,41.7373047 C97.0794786,41.7542319 96.6605375,41.8557933 96.385471,42.0419922 C96.1104046,42.228191 95.9728734,42.5117168 95.9728734,42.8925781 C95.9728734,43.4384793 96.2860213,43.7114258 96.9123265,43.7114258 C97.3608965,43.7114258 97.7195355,43.5823581 97.9882542,43.3242188 C98.256973,43.0660794 98.3913304,42.7233094 98.3913304,42.2958984 L98.3913304,41.7119141 Z M108.707601,43.5844727 L109.742269,43.5844727 L109.742269,47.5454102 L108.003011,47.5454102 L108.003011,45 L101.998128,45 L101.998128,37.9033203 L103.934164,37.9033203 L103.934164,43.5463867 L106.765218,43.5463867 L106.765218,37.9033203 L108.707601,37.9033203 L108.707601,43.5844727 Z M112.504829,37.9033203 L112.504829,40.7089844 C112.504829,41.0052098 112.456164,41.7288354 112.358833,42.8798828 L115.634223,37.9033203 L117.963813,37.9033203 L117.963813,45 L116.091255,45 L116.091255,42.1689453 C116.091255,41.6653621 116.133572,40.9544317 116.218208,40.0361328 L112.955512,45 L110.63227,45 L110.63227,37.9033203 L112.504829,37.9033203 Z M121.557916,37.9033203 L121.557916,40.7089844 C121.557916,41.0052098 121.509251,41.7288354 121.41192,42.8798828 L124.68731,37.9033203 L127.0169,37.9033203 L127.0169,45 L125.144342,45 L125.144342,42.1689453 C125.144342,41.6653621 125.186659,40.9544317 125.271295,40.0361328 L122.008599,45 L119.685357,45 L119.685357,37.9033203 L121.557916,37.9033203 Z" id="Персональные-рекомен" fill="#F9E215"></path>
                    </g>
                </g>
            </g>
        </g>
    </g>
</svg>