<?xml version="1.0" encoding="UTF-8" standalone="no"?>
<svg width="141px" height="70px" viewBox="0 0 141 70" version="1.1" xmlns="http://www.w3.org/2000/svg" xmlns:xlink="http://www.w3.org/1999/xlink">
    <!-- Generator: Sketch 3.7.1 (28215) - http://www.bohemiancoding.com/sketch -->
    <title>bubble copy</title>
    <desc>Created with Sketch.</desc>
    <defs></defs>
    <g id="Главная-страница" stroke="none" stroke-width="1" fill="none" fill-rule="evenodd">
        <g id="1920_Index_neavtorizovan" transform="translate(-470.000000, -2748.000000)">
            <g id="podpiska" transform="translate(-2.000000, 2523.000000)">
                <g id="bg">
                    <g id="bubble-copy" transform="translate(472.000000, 225.000000)">
                        <path d="M121.002035,63.0023643 C121.127896,63.1482857 127.07454,70 134,70 L141,70 C141,70 135,63 135,58 C135,53 135,36 135,36 L134.985995,36 C134.995311,35.6678038 135,35.3344497 135,35 C135,15.6657836 119.327948,-1.8189894e-12 99.995493,-1.8189894e-12 L35.6062792,-1.8189894e-12 C16.2654977,-1.8189894e-12 0.601772179,15.6700338 0.601772179,35 C0.601772179,54.3342164 16.2738238,70 35.6062792,70 L99.995493,70 C107.879262,70 115.152061,67.3963076 121.002035,63.0023643 Z" id="Path-169-Copy" fill="#FD6462"></path>
                        <path d="M26.2737626,32 L24.3059892,32 L24.3059892,24.3574219 L21.7859697,24.3574219 L21.7859697,22.7197266 L28.7937822,22.7197266 L28.7937822,24.3574219 L26.2737626,24.3574219 L26.2737626,32 Z M31.7912052,26.1474609 C31.3807214,26.1474609 31.05911,26.2775866 30.8263614,26.5378418 C30.5936129,26.798097 30.4603134,27.1673153 30.4264591,27.6455078 L33.143256,27.6455078 C33.1347924,27.1673153 33.0099564,26.798097 32.7687443,26.5378418 C32.5275321,26.2775866 32.201689,26.1474609 31.7912052,26.1474609 L31.7912052,26.1474609 Z M32.0641544,32.1269531 C30.9215706,32.1269531 30.0286759,31.8116894 29.3854435,31.1811523 C28.7422111,30.5506153 28.4205997,29.6577206 28.4205997,28.5024414 C28.4205997,27.3133079 28.7178787,26.3939648 29.3124454,25.7443848 C29.9070122,25.0948047 30.7290255,24.7700195 31.7785099,24.7700195 C32.7814446,24.7700195 33.5621985,25.0556612 34.120795,25.6269531 C34.6793916,26.198245 34.9586857,26.9874624 34.9586857,27.9946289 L34.9586857,28.934082 L30.3820255,28.934082 C30.4031845,29.484215 30.566106,29.9137354 30.870795,30.2226562 C31.1754841,30.5315771 31.6028886,30.6860352 32.1530216,30.6860352 C32.5804326,30.6860352 32.9845627,30.641602 33.3654239,30.5527344 C33.7462852,30.4638667 34.1440677,30.3221038 34.5587833,30.1274414 L34.5587833,31.6254883 C34.22024,31.79476 33.8584272,31.9206539 33.4733341,32.0031738 C33.088241,32.0856938 32.6185192,32.1269531 32.0641544,32.1269531 L32.0641544,32.1269531 Z M45.1670462,32 L43.3579642,32 L43.3579642,26.4077148 L43.2564017,26.8012695 C43.0278849,27.6941776 42.8226461,28.3691383 42.640679,28.8261719 L41.3838431,32 L40.0064017,32 L38.7305228,28.8007812 C38.5485557,28.3352841 38.3538962,27.6814821 38.1465384,26.8393555 L38.0259329,26.4077148 L38.0259329,32 L36.2231985,32 L36.2231985,24.9033203 L38.8892142,24.9033203 L40.1079642,27.9311523 C40.2349179,28.2570003 40.3523484,28.6315083 40.4602591,29.0546875 C40.5681698,29.4778667 40.6411671,29.8396795 40.6792532,30.1401367 C40.8189024,29.5053679 40.9278694,29.0493992 41.0061575,28.7722168 C41.0844457,28.4950344 41.1701382,28.2400728 41.2632376,28.0073242 C41.356337,27.7745757 41.777394,26.739918 42.5264212,24.9033203 L45.1670462,24.9033203 L45.1670462,32 Z M51.3954262,32 L51.0209145,31.0351562 L50.9701333,31.0351562 C50.6442853,31.4456401 50.3089208,31.7302238 49.9640298,31.888916 C49.6191387,32.0476082 49.1695176,32.1269531 48.6151528,32.1269531 C47.9338343,32.1269531 47.3974627,31.9322936 47.0060219,31.5429688 C46.6145812,31.1536439 46.4188637,30.5992875 46.4188637,29.8798828 C46.4188637,29.1266238 46.6822888,28.5712095 47.2091469,28.213623 C47.736005,27.8560366 48.5305121,27.6582033 49.5926919,27.6201172 L50.8241372,27.5820312 L50.8241372,27.2709961 C50.8241372,26.5515915 50.4559768,26.1918945 49.719645,26.1918945 C49.1525849,26.1918945 48.4860876,26.3632795 47.7201333,26.7060547 L47.07902,25.3984375 C47.8957558,24.9710265 48.8013458,24.7573242 49.7958169,24.7573242 C50.7479701,24.7573242 51.4779432,24.9646789 51.9857583,25.3793945 C52.4935733,25.7941101 52.747477,26.4246377 52.747477,27.2709961 L52.747477,32 L51.3954262,32 Z M50.8241372,28.7119141 L50.0751137,28.7373047 C49.5122854,28.7542319 49.0933443,28.8557933 48.8182778,29.0419922 C48.5432113,29.228191 48.4056801,29.5117168 48.4056801,29.8925781 C48.4056801,30.4384793 48.7188281,30.7114258 49.3451333,30.7114258 C49.7937032,30.7114258 50.1523422,30.5823581 50.421061,30.3242188 C50.6897798,30.0660794 50.8241372,29.7233094 50.8241372,29.2958984 L50.8241372,28.7119141 Z M60.3025172,24.9033203 L60.3025172,26.3569336 L57.979275,26.3569336 L57.979275,32 L56.0432399,32 L56.0432399,26.3569336 L53.71365,26.3569336 L53.71365,24.9033203 L60.3025172,24.9033203 Z M63.1856824,24.9033203 L63.1856824,27.7089844 C63.1856824,28.0052098 63.1370176,28.7288354 63.0396864,29.8798828 L66.315077,24.9033203 L68.6446668,24.9033203 L68.6446668,32 L66.7721082,32 L66.7721082,29.1689453 C66.7721082,28.6653621 66.8144255,27.9544317 66.8990614,27.0361328 L63.636366,32 L61.3131239,32 L61.3131239,24.9033203 L63.1856824,24.9033203 Z M72.0673828,24.9033203 L72.0673828,27.4995117 C72.0673828,28.1173533 72.3530245,28.4262695 72.9243164,28.4262695 C73.2967141,28.4262695 73.6426579,28.3839522 73.9621582,28.2993164 C74.2816585,28.2146806 74.6043278,28.1046556 74.9301758,27.9692383 L74.9301758,24.9033203 L76.8662109,24.9033203 L76.8662109,32 L74.9301758,32 L74.9301758,29.1816406 C74.4816058,29.418621 74.0647806,29.5857743 73.6796875,29.6831055 C73.2945944,29.7804367 72.9222023,29.8291016 72.5625,29.8291016 C71.7880821,29.8291016 71.1892925,29.6312683 70.7661133,29.2355957 C70.3429341,28.8399232 70.1313477,28.2760453 70.1313477,27.5439453 L70.1313477,24.9033203 L72.0673828,24.9033203 Z M81.5203722,26.1474609 C81.1098884,26.1474609 80.7882771,26.2775866 80.5555285,26.5378418 C80.3227799,26.798097 80.1894805,27.1673153 80.1556261,27.6455078 L82.872423,27.6455078 C82.8639594,27.1673153 82.7391234,26.798097 82.4979113,26.5378418 C82.2566992,26.2775866 81.9308561,26.1474609 81.5203722,26.1474609 L81.5203722,26.1474609 Z M81.7933215,32.1269531 C80.6507376,32.1269531 79.7578429,31.8116894 79.1146105,31.1811523 C78.4713781,30.5506153 78.1497668,29.6577206 78.1497668,28.5024414 C78.1497668,27.3133079 78.4470457,26.3939648 79.0416125,25.7443848 C79.6361793,25.0948047 80.4581925,24.7700195 81.5076769,24.7700195 C82.5106116,24.7700195 83.2913655,25.0556612 83.8499621,25.6269531 C84.4085586,26.198245 84.6878527,26.9874624 84.6878527,27.9946289 L84.6878527,28.934082 L80.1111926,28.934082 C80.1323515,29.484215 80.2952731,29.9137354 80.5999621,30.2226562 C80.9046511,30.5315771 81.3320557,30.6860352 81.8821886,30.6860352 C82.3095996,30.6860352 82.7137297,30.641602 83.094591,30.5527344 C83.4754523,30.4638667 83.8732348,30.3221038 84.2879504,30.1274414 L84.2879504,31.6254883 C83.949407,31.79476 83.5875942,31.9206539 83.2025011,32.0031738 C82.8174081,32.0856938 82.3476862,32.1269531 81.7933215,32.1269531 L81.7933215,32.1269531 Z M88.8342015,32.1269531 C86.6252061,32.1269531 85.520725,30.9145629 85.520725,28.4897461 C85.520725,27.2836854 85.8211777,26.3622265 86.4220921,25.7253418 C87.0230066,25.0884571 87.8841634,24.7700195 89.0055882,24.7700195 C89.8265559,24.7700195 90.5628766,24.9308252 91.2145726,25.2524414 L90.6432835,26.7504883 C90.3385945,26.6277663 90.0550687,26.5272628 89.7926976,26.4489746 C89.5303265,26.3706865 89.2679593,26.331543 89.0055882,26.331543 C87.9984217,26.331543 87.494846,27.0467051 87.494846,28.4770508 C87.494846,29.8650786 87.9984217,30.559082 89.0055882,30.559082 C89.3779859,30.559082 89.7228718,30.5093592 90.0402562,30.4099121 C90.3576406,30.310465 90.6750202,30.154949 90.9924046,29.9433594 L90.9924046,31.6000977 C90.679252,31.7989919 90.3629303,31.9365231 90.04343,32.0126953 C89.7239297,32.0888676 89.3208576,32.1269531 88.8342015,32.1269531 L88.8342015,32.1269531 Z M96.9795738,24.9033203 L99.1123863,24.9033203 L96.3003745,28.3056641 L99.3599449,32 L97.1636558,32 L94.2627769,28.4008789 L94.2627769,32 L92.3267417,32 L92.3267417,24.9033203 L94.2627769,24.9033203 L94.2627769,28.3500977 L96.9795738,24.9033203 Z M101.938423,24.9033203 L101.938423,27.7089844 C101.938423,28.0052098 101.889758,28.7288354 101.792426,29.8798828 L105.067817,24.9033203 L107.397407,24.9033203 L107.397407,32 L105.524848,32 L105.524848,29.1689453 C105.524848,28.6653621 105.567166,27.9544317 105.651801,27.0361328 L102.389106,32 L100.065864,32 L100.065864,24.9033203 L101.938423,24.9033203 Z M112.057916,26.1474609 C111.647432,26.1474609 111.325821,26.2775866 111.093072,26.5378418 C110.860324,26.798097 110.727024,27.1673153 110.69317,27.6455078 L113.409967,27.6455078 C113.401503,27.1673153 113.276667,26.798097 113.035455,26.5378418 C112.794243,26.2775866 112.4684,26.1474609 112.057916,26.1474609 L112.057916,26.1474609 Z M112.330865,32.1269531 C111.188281,32.1269531 110.295387,31.8116894 109.652154,31.1811523 C109.008922,30.5506153 108.68731,29.6577206 108.68731,28.5024414 C108.68731,27.3133079 108.984589,26.3939648 109.579156,25.7443848 C110.173723,25.0948047 110.995736,24.7700195 112.045221,24.7700195 C113.048155,24.7700195 113.828909,25.0556612 114.387506,25.6269531 C114.946102,26.198245 115.225396,26.9874624 115.225396,27.9946289 L115.225396,28.934082 L110.648736,28.934082 C110.669895,29.484215 110.832817,29.9137354 111.137506,30.2226562 C111.442195,30.5315771 111.869599,30.6860352 112.419732,30.6860352 C112.847143,30.6860352 113.251273,30.641602 113.632135,30.5527344 C114.012996,30.4638667 114.410778,30.3221038 114.825494,30.1274414 L114.825494,31.6254883 C114.486951,31.79476 114.125138,31.9206539 113.740045,32.0031738 C113.354952,32.0856938 112.88523,32.1269531 112.330865,32.1269531 L112.330865,32.1269531 Z M43.7388235,42.9033203 L43.7388235,50 L41.7964407,50 L41.7964407,44.3569336 L39.2256399,44.3569336 L39.2256399,50 L37.2896048,50 L37.2896048,42.9033203 L43.7388235,42.9033203 Z M46.9965005,46.4389648 C46.9965005,47.1414423 47.1118151,47.6725242 47.3424477,48.0322266 C47.5730804,48.3919289 47.9486463,48.5717773 48.4691567,48.5717773 C48.9854353,48.5717773 49.3567695,48.3929868 49.5831704,48.0354004 C49.8095713,47.677814 49.92277,47.1456741 49.92277,46.4389648 C49.92277,45.7364874 49.8085133,45.2096372 49.5799966,44.8583984 C49.3514798,44.5071597 48.9769718,44.331543 48.4564614,44.331543 C47.9401828,44.331543 47.5677907,44.5061018 47.3392739,44.8552246 C47.1107571,45.2043474 46.9965005,45.7322556 46.9965005,46.4389648 L46.9965005,46.4389648 Z M51.9032387,46.4389648 C51.9032387,47.5942441 51.5985543,48.4977181 50.9891762,49.1494141 C50.3797982,49.80111 49.5313366,50.1269531 48.4437661,50.1269531 C47.7624476,50.1269531 47.1615421,49.9777847 46.6410317,49.6794434 C46.1205213,49.381102 45.720623,48.9526395 45.4413247,48.394043 C45.1620264,47.8354464 45.0223794,47.1837602 45.0223794,46.4389648 C45.0223794,45.2794538 45.324948,44.3780957 45.9300942,43.7348633 C46.5352405,43.0916309 47.3858179,42.7700195 48.481852,42.7700195 C49.1631705,42.7700195 49.764076,42.91813 50.2845864,43.2143555 C50.8050968,43.5105809 51.2049952,43.9358696 51.4842934,44.4902344 C51.7635917,45.0445991 51.9032387,45.6941695 51.9032387,46.4389648 L51.9032387,46.4389648 Z M57.6365016,48.5844727 L57.6365016,44.3569336 L56.1828883,44.3569336 C56.0770935,45.1440469 55.9321568,45.890947 55.7480739,46.5976562 C55.5639909,47.3043655 55.3090293,47.966631 54.9831813,48.5844727 L57.6365016,48.5844727 Z M60.6135524,52.5454102 L58.8742946,52.5454102 L58.8742946,50 L54.1008571,50 L54.1008571,52.5454102 L52.3615993,52.5454102 L52.3615993,48.5844727 L52.958279,48.5844727 C53.364531,47.9539356 53.7051851,47.1583707 53.9802516,46.1977539 C54.2553181,45.2371371 54.4478617,44.1390036 54.5578883,42.9033203 L59.5725368,42.9033203 L59.5725368,48.5844727 L60.6135524,48.5844727 L60.6135524,52.5454102 Z M61.0846082,45.7470703 C61.0846082,44.1178304 61.3945823,42.8811077 62.0145399,42.0368652 C62.6344974,41.1926227 63.6025053,40.658367 64.9185926,40.434082 C65.5575932,40.3240554 66.511848,40.1844084 67.7813856,40.0151367 L68.0035535,41.7036133 C67.4534206,41.7670902 66.4780072,41.9025055 65.077284,42.1098633 C64.5440782,42.1944991 64.1462957,42.321451 63.8839246,42.4907227 C63.6215535,42.6599943 63.4258361,42.9012029 63.2967664,43.2143555 C63.1676968,43.5275081 63.0883519,43.9443333 63.0587293,44.4648438 L63.1539442,44.4648438 C63.3782291,44.1178368 63.6744501,43.8512379 64.042616,43.6650391 C64.4107819,43.4788402 64.8064486,43.3857422 65.2296278,43.3857422 C66.1056087,43.3857422 66.786917,43.653399 67.2735731,44.1887207 C67.7602291,44.7240424 68.0035535,45.4910432 68.0035535,46.4897461 C68.0035535,47.6407935 67.6956953,48.5347462 67.0799696,49.1716309 C66.4642438,49.8085156 65.6147243,50.1269531 64.5313856,50.1269531 C63.4480468,50.1269531 62.602759,49.738692 61.9954969,48.9621582 C61.3882347,48.1856244 61.0846082,47.1139391 61.0846082,45.7470703 L61.0846082,45.7470703 Z M64.6456434,48.559082 C65.5639422,48.559082 66.0230848,47.9264386 66.0230848,46.6611328 C66.0230848,45.4296813 65.6083754,44.8139648 64.7789442,44.8139648 C64.5504274,44.8139648 64.322972,44.8668615 64.0965711,44.9726562 C63.8701702,45.078451 63.6628155,45.2170402 63.4745008,45.3884277 C63.2861861,45.5598153 63.147597,45.7322582 63.0587293,45.9057617 C63.0587293,46.7648155 63.1962605,47.4217913 63.471327,47.876709 C63.7463935,48.3316266 64.1378283,48.559082 64.6456434,48.559082 L64.6456434,48.559082 Z M70.8359375,46.4389648 C70.8359375,47.1414423 70.9512521,47.6725242 71.1818848,48.0322266 C71.4125174,48.3919289 71.7880833,48.5717773 72.3085938,48.5717773 C72.8248724,48.5717773 73.1962066,48.3929868 73.4226074,48.0354004 C73.6490083,47.677814 73.762207,47.1456741 73.762207,46.4389648 C73.762207,45.7364874 73.6479504,45.2096372 73.4194336,44.8583984 C73.1909168,44.5071597 72.8164089,44.331543 72.2958984,44.331543 C71.7796198,44.331543 71.4072277,44.5061018 71.1787109,44.8552246 C70.9501942,45.2043474 70.8359375,45.7322556 70.8359375,46.4389648 L70.8359375,46.4389648 Z M75.7426758,46.4389648 C75.7426758,47.5942441 75.4379913,48.4977181 74.8286133,49.1494141 C74.2192352,49.80111 73.3707737,50.1269531 72.2832031,50.1269531 C71.6018846,50.1269531 71.0009792,49.9777847 70.4804688,49.6794434 C69.9599583,49.381102 69.56006,48.9526395 69.2807617,48.394043 C69.0014634,47.8354464 68.8618164,47.1837602 68.8618164,46.4389648 C68.8618164,45.2794538 69.164385,44.3780957 69.7695312,43.7348633 C70.3746775,43.0916309 71.2252549,42.7700195 72.3212891,42.7700195 C73.0026076,42.7700195 73.603513,42.91813 74.1240234,43.2143555 C74.6445339,43.5105809 75.0444322,43.9358696 75.3237305,44.4902344 C75.6030287,45.0445991 75.7426758,45.6941695 75.7426758,46.4389648 L75.7426758,46.4389648 Z M80.9300402,50.1269531 C80.0963772,50.1269531 79.4425751,49.8243845 78.9686144,49.2192383 L78.8670519,49.2192383 C78.9347606,49.8116892 78.9686144,50.1544592 78.9686144,50.2475586 L78.9686144,53.1230469 L77.0325793,53.1230469 L77.0325793,42.9033203 L78.606798,42.9033203 L78.8797472,43.8237305 L78.9686144,43.8237305 C79.4214162,43.121253 80.0921451,42.7700195 80.9808215,42.7700195 C81.8187163,42.7700195 82.4746342,43.0937468 82.9485949,43.7412109 C83.4225556,44.3886751 83.6595324,45.2879174 83.6595324,46.4389648 C83.6595324,47.1964556 83.5484495,47.8544894 83.3262804,48.4130859 C83.1041114,48.9716825 82.7877897,49.3969712 82.3773058,49.6889648 C81.966822,49.9809585 81.484405,50.1269531 80.9300402,50.1269531 L80.9300402,50.1269531 Z M80.3587511,44.3188477 C79.8805587,44.3188477 79.5314411,44.4659002 79.3113879,44.7600098 C79.0913347,45.0541193 78.977078,45.5397102 78.9686144,46.2167969 L78.9686144,46.4262695 C78.9686144,47.1879921 79.0818132,47.7338851 79.308214,48.0639648 C79.5346149,48.3940446 79.8932539,48.559082 80.3841418,48.559082 C81.2516591,48.559082 81.6854113,47.8439199 81.6854113,46.4135742 C81.6854113,45.7153285 81.5785602,45.1916521 81.3648547,44.8425293 C81.1511492,44.4934065 80.8157847,44.3188477 80.3587511,44.3188477 L80.3587511,44.3188477 Z M89.6022679,42.9033203 L91.7350804,42.9033203 L88.9230687,46.3056641 L91.982639,50 L89.78635,50 L86.885471,46.4008789 L86.885471,50 L84.9494359,50 L84.9494359,42.9033203 L86.885471,42.9033203 L86.885471,46.3500977 L89.6022679,42.9033203 Z M94.5611167,42.9033203 L94.5611167,45.7089844 C94.5611167,46.0052098 94.5124518,46.7288354 94.4151206,47.8798828 L97.6905113,42.9033203 L100.020101,42.9033203 L100.020101,50 L98.1475425,50 L98.1475425,47.1689453 C98.1475425,46.6653621 98.1898598,45.9544317 98.2744956,45.0361328 L95.0118003,50 L92.6885581,50 L92.6885581,42.9033203 L94.5611167,42.9033203 Z" id="Label" fill="#F9E215"></path>
                    </g>
                </g>
            </g>
        </g>
    </g>
</svg>