<svg width="15" height="13" viewBox="0 0 15 13" xmlns="http://www.w3.org/2000/svg"><title>Page 1</title><path d="M13.41 2.183c-1.043-1.227-3.018-1.545-4.5-.74-.739.401-1.07.724-1.244.918-.19-.194-.512-.517-1.25-.918-1.482-.805-3.46-.487-4.503.74-.98 1.154-1.145 2.46-.62 3.84.369.967 1.012 1.78 1.729 2.54 1.34 1.42 2.892 2.606 4.568 3.654a.226.226 0 0 0 .076.033c0-.005.042-.015.07-.033 1.676-1.048 3.223-2.234 4.563-3.654.717-.76 1.361-1.573 1.73-2.54.525-1.38.361-2.686-.62-3.84z" stroke="#000" fill="none" fill-rule="evenodd"/></svg>