<svg width="30" height="30" viewBox="0 0 30 30" xmlns="http://www.w3.org/2000/svg"><title>book label_small_skidka_default 3</title><g fill="none" fill-rule="evenodd"><path d="M0 3.014A3.013 3.013 0 0 1 3.014 0h23.972A3.013 3.013 0 0 1 30 3.014V30H0V3.014z" fill="#FD6462"/><path d="M3.191 16.48c-.247-.354-.256-.94-.017-1.31l3.763-5.84C7.41 8.595 8.493 8 9.377 8h13.9a2.37 2.37 0 0 1 2.37 2.372v10.333a2.373 2.373 0 0 1-2.37 2.372h-13.9c-.874 0-1.988-.58-2.487-1.294L3.191 16.48z" fill="#FAF000"/><path d="M12.579 14.077c.872 0 1.579-.689 1.579-1.539S13.45 11 12.578 11c-.871 0-1.578.689-1.578 1.538 0 .85.707 1.539 1.579 1.539zM19.579 20.077c.872 0 1.579-.689 1.579-1.539S20.45 17 19.578 17c-.871 0-1.578.689-1.578 1.538 0 .85.707 1.539 1.579 1.539z" stroke="#FD6462" stroke-width="1.579"/><path d="M12.373 18.986l7.248-7.98" stroke="#FD6462" stroke-width="1.579" stroke-linecap="round"/></g></svg>