<svg width="46" height="60" viewBox="0 0 46 60" xmlns="http://www.w3.org/2000/svg" xmlns:xlink="http://www.w3.org/1999/xlink"><title>yandex_dengi_product_icon_cmyk</title><defs><path id="a" d="M.013.19h45.475V60H.013"/></defs><g fill="none" fill-rule="evenodd"><g><mask id="b" fill="#fff"><use xlink:href="#a"/></mask><path d="M0 29.858c0-3.358.282-5.49 7.237-10.682C12.996 14.878 31.452.19 31.452.19v24.52h14.036V60H4.385A4.398 4.398 0 0 1 0 55.615V29.858" fill="#FACA21" mask="url(#b)"/></g><path fill="#CAA521" d="M31.452 24.71v14.207L5.66 56.488l32.61-10.61V24.709h-6.818"/><path d="M19.666 23.975c1.508-1.798 3.711-2.432 4.92-1.417 1.21 1.015.968 3.295-.54 5.092-1.507 1.797-3.71 2.43-4.92 1.416-1.21-1.015-.968-3.294.54-5.091" fill="#6F8F9D"/></g></svg>