<svg width="26" height="38" viewBox="0 0 26 38" xmlns="http://www.w3.org/2000/svg"><title>Page 1</title><g fill="#FD6462" fill-rule="evenodd"><path d="M24 13.5c0 1.38-1.115 2.5-2.496 2.5h-6.008A2.492 2.492 0 0 1 13 13.5c0-1.38 1.115-2.5 2.496-2.5h6.008A2.492 2.492 0 0 1 24 13.5z"/><path d="M15 9.995c0 1.107.9 2.005 1.992 2.005h7.016c1.1 0 1.992-.894 1.992-2.005v-.99C26 7.898 25.1 7 24.008 7h-7.016C15.892 7 15 7.894 15 9.005v.99z"/><path d="M24 5.995C24 7.102 23.1 8 22.008 8h-7.016C13.892 8 13 7.106 13 5.995v-.99C13 3.898 13.9 3 14.992 3h7.016C23.108 3 24 3.894 24 5.005v.99z"/><path d="M15 2.995C15 4.102 15.9 5 16.992 5h7.016C25.108 5 26 4.106 26 2.995v-.99C26 .898 25.1 0 24.008 0h-7.016C15.892 0 15 .894 15 2.005v.99zM10.426 11.89c0 2.5-1.982 4.525-4.427 4.525-2.445 0-4.426-2.026-4.426-4.525 0-2.5 1.981-4.526 4.426-4.526 2.445 0 4.427 2.026 4.427 4.526"/><path d="M7.523 29.759c-2.439 0-4.416-2.021-4.416-4.515v-5.16c0-2.493 1.977-4.514 4.416-4.514 2.438 0 4.415 2.021 4.415 4.515v5.16c0 2.493-1.977 4.514-4.415 4.514"/><path d="M17.626 22.932H8.891c-1.173 0-2.125-.972-2.125-2.172 0-1.2.952-2.172 2.125-2.172h8.735c1.173 0 2.125.972 2.125 2.172 0 1.2-.952 2.172-2.125 2.172M10.97 36.281l-5.034-7.298c-.676-.98-.447-2.336.512-3.027a2.095 2.095 0 0 1 2.96.523l5.035 7.298c.676.98.447 2.336-.512 3.028a2.095 2.095 0 0 1-2.961-.524"/><path d="M3.861 36.281l5.034-7.298c.676-.98.447-2.336-.511-3.027a2.095 2.095 0 0 0-2.961.523L.389 33.777c-.677.98-.448 2.336.511 3.028a2.095 2.095 0 0 0 2.961-.524"/></g></svg>