<?xml version="1.0" encoding="UTF-8" standalone="no"?>
<svg width="16px" height="16px" viewBox="0 0 16 16" version="1.1" xmlns="http://www.w3.org/2000/svg" xmlns:xlink="http://www.w3.org/1999/xlink">
    <!-- Generator: Sketch 3.7.2 (28276) - http://www.bohemiancoding.com/sketch -->
    <title>Shape</title>
    <desc>Created with Sketch.</desc>
    <defs></defs>
    <g id="Symbols" stroke="none" stroke-width="1" fill="none" fill-rule="evenodd" fill-opacity="0.7">
        <g id="search-icon" fill="#686259">
            <path d="M15.0935055,13.4669999 L11.1870113,10.0693358 C11.7570113,9.13433583 12.664,7.653 12.664,6.478 C12.664,3.061 9.703,0.101 6.286,0.101 C2.869,0.1 0.1,2.87 0.1,6.287 C0.1,9.703 3.061,12.664 6.477,12.664 C7.614,12.664 8.99759727,12.0052147 9.91259727,11.4702147 L13.7336422,14.7961425 C14.1056422,15.1671425 14.2997389,15.0844726 14.5761715,15.0844726 C14.8526041,15.0844726 15.0935055,14.7961425 15.0935055,14.7961425 C15.4645055,14.4251425 15.4645055,14.1175819 15.0935055,13.7465819 L15.0935055,13.4669999 Z M2.004,6.287 C2.004,3.921 3.921,2.004 6.286,2.004 C8.652,2.004 10.76,4.111 10.76,6.478 C10.76,8.843 8.842,10.761 6.477,10.761 C4.111,10.76 2.004,8.652 2.004,6.287 L2.004,6.287 Z" id="Shape"></path>
        </g>
    </g>
</svg>