<?xml version="1.0" encoding="UTF-8" standalone="no"?>
<svg width="187px" height="40px" viewBox="0 0 187 40" version="1.1" xmlns="http://www.w3.org/2000/svg" xmlns:xlink="http://www.w3.org/1999/xlink">
    <!-- Generator: Sketch 3.7.1 (28215) - http://www.bohemiancoding.com/sketch -->
    <title>MIF</title>
    <desc>Created with Sketch.</desc>
    <defs>
        <polygon id="path-1" points="6.10687023e-05 39.8473282 9.70876336 39.8473282 9.70876336 0.0505343511 6.10687023e-05 0.0505343511"></polygon>
        <polygon id="path-3" points="7.34045802 11.782855 7.34045802 0.115841511 0.0827328244 0.115841511 0.0827328244 11.782855"></polygon>
    </defs>
    <g id="Главная-страница" stroke="none" stroke-width="1" fill="none" fill-rule="evenodd">
        <g id="1920_Index_neavtorizovan" transform="translate(-866.000000, -14.000000)">
            <g id="logo-izdatelstv" transform="translate(0.000000, -1.000000)">
                <g id="Hover-state" transform="translate(288.000000, 12.000000)">
                    <g id="MIF" transform="translate(578.000000, 3.000000)">
                        <g id="Group-3" transform="translate(0.000000, 0.102137)">
                            <mask id="mask-2" fill="white">
                                <use xlink:href="#path-1"></use>
                            </mask>
                            <g id="Clip-2"></g>
                            <path d="M5.50647328,4.43319084 L5.50647328,5.40418321 C5.50616794,15.0976183 5.51563359,24.7910534 5.48723664,34.4844885 C5.48509924,35.2625038 5.68494656,35.5020458 6.46021374,35.4524275 C7.51899237,35.3846412 8.58540458,35.4354809 9.70876336,35.4354809 L9.70876336,39.8473893 L6.10687023e-05,39.8473893 L6.10687023e-05,0.0504427481 L9.70525191,0.0504427481 L9.70525191,4.43319084 L5.50647328,4.43319084 Z" id="Fill-1" fill="#000000" mask="url(#mask-2)"></path>
                        </g>
                        <path d="M27.3451908,20.5995267 L27.3451908,32.3343359 L25.5398473,32.3343359 L25.5398473,23.1027328 C25.4728244,23.0920458 25.4059542,23.0813588 25.3389313,23.0708244 C24.478626,26.1612061 23.6183206,29.2517405 22.7651908,32.3167786 C22.6732824,32.3479237 22.6264122,32.3758626 22.5781679,32.378458 C21.3033588,32.4463969 21.2952672,32.448229 20.9598473,31.2169313 C20.2259542,28.5231908 19.5012214,25.826855 18.6128244,23.1418168 L18.6128244,32.3378473 L16.9859542,32.3378473 L16.9859542,20.6080763 C17.8540458,20.6080763 18.709313,20.5761679 19.5580153,20.6357099 C19.7222901,20.6471603 19.9358779,20.9947939 20.000916,21.2231908 C20.640916,23.4712824 21.2540458,25.7270076 21.8757252,27.9802901 C21.9429008,28.2239542 22.0154198,28.4659389 22.1366412,28.8856336 C22.2708397,28.536626 22.3627481,28.3430382 22.4207634,28.1398321 C23.0763359,25.8445649 23.7387786,23.5511298 24.3685496,21.248687 C24.4961832,20.7818168 24.6816794,20.558916 25.1966412,20.5892977 C25.8993893,20.6305191 26.6062595,20.5995267 27.3451908,20.5995267" id="Fill-4" fill="#000000"></path>
                        <path d="M140.023115,23.3565649 L140.023115,29.1461832 C141.497618,29.2141221 142.309832,28.5849618 142.469527,27.2165649 C142.539298,26.6182443 142.538076,25.998855 142.471206,25.3999237 C142.319145,24.0341221 141.524947,23.3744275 140.023115,23.3565649 L140.023115,23.3565649 Z M138.115634,23.3991603 C136.76342,23.2721374 135.80571,24.0101527 135.650443,25.3373282 C135.577313,25.9614504 135.584947,26.6070992 135.650748,27.2330534 C135.791206,28.5727481 136.67258,29.2432824 138.115634,29.1396183 L138.115634,23.3991603 Z M138.089069,20.2770229 L139.892122,20.2770229 C139.93426,20.3385496 139.991206,20.3834351 139.986321,20.4200763 C139.85716,21.3921374 140.206473,21.7780916 141.25487,21.8985496 C142.709527,22.0655725 143.638992,23.0715267 144.073038,24.4689313 C144.484794,25.7948855 144.449832,27.1325954 143.970443,28.4339695 C143.488305,29.7432824 142.499908,30.451374 141.136092,30.6771756 C140.048305,30.8573282 140.050901,30.8680153 140.021588,31.939771 C140.017618,32.088626 139.99945,32.2371756 139.983115,32.4477099 L138.18342,32.4477099 C138.097618,31.8971756 138.186626,31.2025191 137.88174,30.8767176 C137.587847,30.5626718 136.873191,30.6747328 136.367389,30.520687 C134.713038,30.0170229 133.886473,28.6898473 133.792733,26.4625191 C133.691817,24.0657252 134.784183,22.2374809 136.828458,21.9161069 C137.957771,21.7387023 138.275176,21.3135115 138.089069,20.2770229 L138.089069,20.2770229 Z" id="Fill-6" fill="#000000"></path>
                        <path d="M111.99426,25.3846107 C112.758382,25.3846107 113.444336,25.4438473 114.115176,25.3684275 C114.831817,25.2879695 115.267695,24.6494962 115.300214,23.824458 C115.331206,23.034687 114.937313,22.355145 114.256092,22.274229 C113.520366,22.1869008 112.766168,22.2545344 111.99426,22.2545344 L111.99426,25.3846107 Z M111.995634,30.8884275 C112.838992,30.8290382 113.606321,30.8406412 114.346931,30.7055267 C115.179756,30.5534656 115.615176,29.9287328 115.656092,29.0620153 C115.698076,28.1716336 115.331053,27.3820153 114.606473,27.2259847 C113.763267,27.044458 112.878382,27.0562137 111.995634,26.982626 L111.995634,30.8884275 Z M115.804489,26.1461374 C117.402809,27.1108702 117.90174,28.1021679 117.649527,29.7117863 C117.41945,31.1795725 116.55655,32.1711756 115.062504,32.2890382 C113.400977,32.4200305 111.721282,32.3189618 110.006321,32.3189618 L110.006321,20.7165191 C111.806168,20.7165191 113.581588,20.6276641 115.342656,20.7488855 C116.453649,20.825374 117.063725,21.7140763 117.250443,22.7623206 C117.446168,23.8618626 117.422504,24.9627786 116.409221,25.7478168 C116.229221,25.8873588 116.028458,25.9998779 115.804489,26.1461374 L115.804489,26.1461374 Z" id="Fill-8" fill="#000000"></path>
                        <path d="M74.6814504,22.2265191 C74.6814504,23.2198015 74.6634351,24.1049924 74.6985496,24.9880458 C74.7046565,25.1420916 74.931374,25.4115573 75.0622137,25.4152214 C75.6918321,25.4333893 76.3351908,25.443771 76.9512214,25.3327786 C77.640687,25.2085038 78.0098473,24.5320153 77.9791603,23.6801069 C77.9489313,22.8416336 77.5718321,22.3190382 76.8087786,22.2408702 C76.1394656,22.1721679 75.4576336,22.2265191 74.6814504,22.2265191 M74.6796183,30.8991908 C75.5718321,30.8216336 76.3825191,30.8306412 77.1548855,30.6625496 C77.9878626,30.4814809 78.3776336,29.7827023 78.3417557,28.8569008 C78.3067939,27.9547634 77.8785496,27.2827023 77.1041985,27.1547634 C76.3422137,27.0288092 75.5568702,27.0452977 74.7322901,26.9962901 C74.709084,27.3445344 74.6826718,27.5657557 74.6816031,27.7871298 C74.6770229,28.7701832 74.6796183,29.7532366 74.6796183,30.8991908 M72.7168702,32.335374 L72.7168702,20.5288092 C74.5767176,20.6098779 76.4049618,20.594 78.2069466,20.8036183 C79.3234351,20.933542 79.7898473,21.8987328 79.9515267,22.9541527 C80.1222137,24.0681985 79.9799237,25.0895725 79.0017557,25.8260611 C78.8609924,25.9318626 78.7005344,26.0114046 78.4730534,26.1494198 C80.0747328,26.8984275 80.5649618,28.1849924 80.3168702,29.7961374 C80.0958015,31.2321679 79.1554962,32.204229 77.6570229,32.3097252 C76.0419084,32.4234656 74.4127481,32.335374 72.7168702,32.335374" id="Fill-10" fill="#000000"></path>
                        <path d="M122.053893,20.6395878 L123.979084,20.6395878 L123.979084,28.1314962 C124.037557,28.1510382 124.096031,28.1707328 124.154504,28.1902748 C125.390534,25.7110382 126.823053,23.3293588 127.918321,20.6485954 L129.62626,20.6485954 L129.62626,32.3386718 L127.713435,32.3386718 L127.713435,24.4940916 C126.378931,27.0524122 124.780763,29.4936336 123.791756,32.3461527 L122.053893,32.3461527 L122.053893,20.6395878 Z" id="Fill-12" fill="#000000"></path>
                        <path d="M63.1160916,20.6516794 L65.0119695,20.6516794 L65.0119695,28.2437405 C65.0632672,28.250916 65.1147176,28.2582443 65.1660153,28.2654198 C66.4302901,25.7745802 67.6945649,23.2837405 68.9588397,20.7929008 C68.8939542,20.7608397 68.828916,20.728626 68.7640305,20.6964122 C68.8072366,20.6719847 68.848458,20.6310687 68.8939542,20.6255725 C70.7031145,20.4051145 70.7025038,20.4055725 70.7021985,22.2112214 C70.7014351,25.289084 70.7017405,28.3670992 70.7015878,31.4451145 L70.7015878,32.3350382 L68.7304427,32.3350382 L68.7304427,24.210916 C67.3805191,27.0182443 65.908458,29.520229 64.6907481,32.3332061 L63.1160916,32.3332061 L63.1160916,20.6516794 Z" id="Fill-14" fill="#000000"></path>
                        <path d="M101.93542,26.5919237 C102.039084,27.4352824 102.084275,28.3807786 102.285649,29.291771 C102.534351,30.4174198 103.247023,30.9881069 104.160458,30.9763511 C105.053282,30.9649008 105.793435,30.433145 105.945496,29.3090229 C106.151298,27.7884122 106.183053,26.2346718 106.157557,24.6972672 C106.147176,24.070855 105.89084,23.3919237 105.570229,22.8392519 C104.966565,21.7989466 103.530382,21.7375725 102.802748,22.6975725 C102.508244,23.0859695 102.300458,23.5891756 102.207634,24.0699389 C102.054351,24.8636794 102.026412,25.681542 101.93542,26.5919237 M99.7419847,26.5855115 C99.9581679,25.3650534 100.060153,24.242458 100.367023,23.1787939 C100.895267,21.3478015 102.25313,20.3910076 104.089924,20.3830687 C105.966107,20.3748244 107.294351,21.2780305 107.877405,23.0951298 C108.612366,25.3865802 108.60626,27.7096336 107.844733,29.9952824 C107.282748,31.6821527 105.956336,32.5980305 104.216641,32.6274962 C102.440763,32.6574198 101.02626,31.7707023 100.473588,30.0670382 C100.10229,28.9223053 99.9677863,27.700626 99.7419847,26.5855115" id="Fill-16" fill="#000000"></path>
                        <polygon id="Fill-18" fill="#000000" points="92.8483511 25.4512519 96.3156794 25.4512519 96.3156794 20.6669771 98.2776641 20.6669771 98.2776641 32.3303359 96.3488092 32.3303359 96.3488092 27.1811756 92.8946107 27.1811756 92.8946107 32.3417863 90.9259084 32.3417863 90.9259084 20.6683511 92.8483511 20.6683511"></polygon>
                        <path d="M164.421176,30.8541679 C165.559191,30.716458 166.813389,31.2463817 167.614458,30.0868397 C168.116748,29.3598168 168.175221,28.4424122 167.636595,27.7144733 C166.815985,26.6056183 165.570794,27.0937099 164.421176,26.976916 L164.421176,30.8541679 Z M162.479954,32.3402748 L162.479954,20.6476031 L169.166061,20.6476031 L169.166061,22.1492824 L164.427282,22.1492824 L164.427282,25.4140153 C165.173695,25.4140153 165.87858,25.4001221 166.582855,25.416916 C167.938885,25.4495878 169.096443,25.8558473 169.678885,27.2130992 C170.281786,28.6182901 169.995221,30.6686718 168.997969,31.5703511 C168.603618,31.9268397 168.044382,32.2782901 167.542244,32.305771 C165.874458,32.3972214 164.19858,32.3402748 162.479954,32.3402748 L162.479954,32.3402748 Z" id="Fill-20" fill="#000000"></path>
                        <path d="M55.1512061,20.5979084 L55.1512061,32.3444733 L53.2200611,32.3444733 C53.2200611,31.0235573 53.2278473,29.735771 53.2180763,28.4481374 C53.2064733,26.9244733 53.3809771,27.1534809 51.9396031,27.1345496 C51.258229,27.1256947 50.5767023,27.1330229 49.8205191,27.1330229 L49.8205191,32.3328702 L47.8567023,32.3328702 L47.8567023,20.6423359 L49.7728855,20.6423359 L49.7728855,25.4774504 C50.8339542,25.4774504 51.8167023,25.5053893 52.7944122,25.4484427 C52.9478473,25.4395878 53.1928855,25.0498168 53.2011298,24.8287481 C53.2426565,23.7116489 53.2621985,22.5899695 53.2040305,21.4743969 C53.1672366,20.7692061 53.3901374,20.4979084 54.0931908,20.5907328 C54.4130382,20.6328702 54.7431145,20.5979084 55.1512061,20.5979084" id="Fill-22" fill="#000000"></path>
                        <path d="M45.6984275,32.3432519 L43.8052977,32.3432519 L43.8052977,27.1820305 L40.3994962,27.1820305 L40.3994962,32.3282901 L38.4263664,32.3282901 L38.4263664,20.6737863 L40.3625496,20.6737863 C40.3625496,21.9986718 40.4088092,23.3137863 40.3445344,24.6234046 C40.3083511,25.3623359 40.5787328,25.5513435 41.2529313,25.4950076 C41.8333893,25.446458 42.4236183,25.4516489 43.0048397,25.4950076 C43.6198015,25.5406565 43.8555267,25.3511908 43.8306412,24.6947023 C43.7805649,23.3777557 43.8156794,22.0577557 43.8156794,20.6689008 L45.6984275,20.6689008 L45.6984275,32.3432519 Z" id="Fill-24" fill="#000000"></path>
                        <path d="M145.798092,32.3508244 L145.798092,20.6590687 L152.484962,20.6590687 L152.484962,22.2476183 C151.274885,22.2476183 150.065573,22.247313 148.856107,22.2476183 C147.771221,22.2479237 147.771221,22.2480763 147.769389,23.2935725 C147.76542,25.4874656 147.76542,25.4874656 149.935344,25.4848702 C150.438244,25.4844122 150.941298,25.4848702 151.49855,25.4848702 L151.49855,27.1331145 L149.654733,27.1331145 L147.78374,27.1331145 C147.78374,28.2735725 147.766031,29.3532672 147.809237,30.4303664 C147.813969,30.547313 148.168473,30.7390687 148.364962,30.7444122 C149.482519,30.7749466 150.60145,30.759374 151.719924,30.7595267 L152.598244,30.7595267 L152.598244,32.3508244 L145.798092,32.3508244 Z" id="Fill-26" fill="#000000"></path>
                        <path d="M171.622656,20.6336641 L178.268,20.6336641 L178.268,22.2161069 L173.535328,22.2161069 C173.535328,23.2541221 173.515634,24.2110687 173.561282,25.1649618 C173.566779,25.2799237 173.924031,25.4635878 174.122656,25.469542 C175.15716,25.5003817 176.193191,25.4838931 177.260519,25.4838931 L177.260519,27.1067939 L173.526473,27.1067939 C173.526473,28.2612977 173.504794,29.3212977 173.553191,30.3782443 C173.55945,30.5138168 173.925863,30.7358015 174.131206,30.7423664 C175.248763,30.7782443 176.368,30.7570229 177.486779,30.7608397 C177.759756,30.7619084 178.03258,30.7835878 178.352885,30.7979389 L178.352885,32.3327481 L171.622656,32.3327481 L171.622656,20.6336641 Z" id="Fill-28" fill="#000000"></path>
                        <path d="M86.602458,27.8378015 C86.1845954,26.1668092 85.7826107,24.5594809 85.380626,22.9521527 C85.3247481,22.9509313 85.2688702,22.9495573 85.2129924,22.9483359 C84.822916,24.5570382 84.4328397,26.1657405 84.0274962,27.8378015 L86.602458,27.8378015 Z M83.631313,29.4730687 C83.3699389,30.4768855 83.1284122,31.4049771 82.8803206,32.3578015 L81.0158931,32.3578015 C81.0757405,32.0958168 81.1169618,31.8623817 81.182458,31.6361221 C82.163374,28.2478779 83.172229,24.8674198 84.110855,21.4674198 C84.3062748,20.7593282 84.6064275,20.5530687 85.3116183,20.5861985 C86.891771,20.6605496 86.5346718,20.3687939 86.9416947,21.8585649 C87.831313,25.1142901 88.6894809,28.3787176 89.5580305,31.6402443 C89.6143664,31.8518473 89.6499389,32.0689466 89.7175725,32.3897099 C89.1087176,32.3897099 88.5790992,32.4301679 88.0621527,32.3666565 C87.8943664,32.3460458 87.6847481,32.0768855 87.6244427,31.881313 C87.4303969,31.2513893 87.3287176,30.5921527 87.122,29.9672672 C87.0554351,29.7660458 86.7807786,29.5046718 86.5899389,29.4952061 C85.6291756,29.4471145 84.6645954,29.4730687 83.631313,29.4730687 L83.631313,29.4730687 Z" id="Fill-30" fill="#000000"></path>
                        <path d="M34.1030382,27.8334351 C33.6679237,26.1229008 33.2616641,24.5256489 32.8552519,22.9283969 C32.3517405,24.4047328 31.9850229,25.8732824 31.6219695,27.3427481 C31.5871603,27.4838168 31.5754046,27.630687 31.5438015,27.8334351 L34.1030382,27.8334351 Z M28.4705191,32.3456489 C29.3605954,29.261374 30.2176947,26.2900763 31.0757099,23.3189313 C31.2938779,22.5632061 31.4870076,21.7981679 31.7528092,21.059542 C31.8227328,20.8651908 32.1103664,20.6403053 32.3160153,20.620916 C34.0346412,20.4593893 34.0500611,20.4690076 34.5013588,22.130687 C35.3726565,25.3389313 36.226855,28.5519084 37.0854809,31.7636641 C37.1297557,31.929313 37.1489924,32.1016794 37.1917405,32.3361832 L35.2033435,32.3361832 C35.0212061,31.6083969 34.8010534,30.8587786 34.6538779,30.0952672 C34.5569313,29.5923664 34.3172366,29.4358779 33.8244122,29.4621374 C33.1150992,29.5 32.4007481,29.500458 31.6912824,29.4636641 C31.2100611,29.438626 31.0160153,29.6316031 30.9260916,30.0841221 C30.778,30.829313 30.5752519,31.5638168 30.3851756,32.3456489 L28.4705191,32.3456489 Z" id="Fill-32" fill="#000000"></path>
                        <path d="M155.842489,26.2501679 C156.913939,26.1365802 158.038977,26.5471145 158.758824,25.4527634 C159.202947,24.7778015 159.135466,23.3834504 158.621267,22.7738321 C157.849053,21.8584122 156.826,22.261771 155.842489,22.2196336 L155.842489,26.2501679 Z M155.811344,32.3455878 L153.871649,32.3455878 C153.855618,32.0770382 153.830885,31.8550534 153.830733,31.632916 C153.827679,28.2051298 153.842794,24.7771908 153.813176,21.3495573 C153.807832,20.7336794 154.001573,20.5576489 154.59287,20.5868092 C155.757908,20.6445191 156.929817,20.5909313 158.091954,20.6767328 C159.971038,20.8156641 161.065847,22.0578015 161.135313,24.0214656 C161.208595,26.0878779 160.266916,27.3745954 158.38371,27.6854351 C157.738061,27.7921527 157.068137,27.7834504 156.410122,27.7730687 C155.941267,27.7655878 155.794397,27.9367328 155.802947,28.3961221 C155.826916,29.6878779 155.811344,30.9802443 155.811344,32.3455878 L155.811344,32.3455878 Z" id="Fill-34" fill="#000000"></path>
                        <g id="Group-38" transform="translate(179.541985, 20.560153)">
                            <mask id="mask-4" fill="white">
                                <use xlink:href="#path-3"></use>
                            </mask>
                            <g id="Clip-37"></g>
                            <path d="M2.08899237,5.66499237 C3.11112977,5.60529771 4.18059542,5.95109924 4.92090076,4.97720611 C5.41723664,4.32422901 5.36746565,2.8620916 4.85464122,2.2318626 C4.09494656,1.29812214 3.06899237,1.70651908 2.08899237,1.64896183 L2.08899237,5.66499237 Z M0.0827328244,0.162854962 C1.68914504,0.162854962 3.22090076,0.0373587786 4.72242748,0.196442748 C6.39922137,0.374 7.31967939,1.71155725 7.3401374,3.59781679 C7.36090076,5.52529771 6.51784733,6.74743511 4.82029008,7.07232061 C3.95647328,7.23751145 3.05815267,7.22300763 2.08105344,7.29690076 L2.08105344,11.782855 L0.0827328244,11.782855 L0.0827328244,0.162854962 Z" id="Fill-36" fill="#000000" mask="url(#mask-4)"></path>
                        </g>
                        <path d="M31.2325496,13.0152977 L33.9818626,13.0152977 L33.9818626,7.99422901 L32.1404885,7.99422901 C31.8331603,9.69392366 31.5375878,11.3281221 31.2325496,13.0152977 M35.8594198,15.663542 L34.8771298,15.663542 C34.8458321,15.5723969 34.804458,15.504458 34.8007939,15.4343817 C34.7204885,13.8956031 34.7212519,13.8956031 33.1372824,13.8956031 C32.4516336,13.8956031 31.7636947,13.9304122 31.0810992,13.8846107 C30.5082748,13.8462901 30.2885802,14.044458 30.3511756,14.614687 C30.3865954,14.9375878 30.3575878,15.2673588 30.3575878,15.6525496 L29.384458,15.6525496 C29.384458,14.8809466 29.3824733,14.1058321 29.3881221,13.3308702 C29.3887328,13.263084 29.4206412,13.1643053 29.4710229,13.1330076 C30.8493435,12.2757557 30.8007939,10.8085802 31.0061374,9.47087023 C31.1209466,8.7229313 31.0989618,7.95392366 31.1414046,7.14232061 L35.1004885,7.14232061 C35.1004885,8.33774046 35.1003359,9.52430534 35.1006412,10.7108702 C35.1007939,11.2949924 35.0985038,11.8791145 35.1043053,12.463084 C35.1058321,12.6136183 35.083542,12.8612519 35.1577405,12.8998779 C36.4898015,13.5930076 35.3795725,14.7404885 35.8594198,15.663542" id="Fill-39" fill="#000000"></path>
                        <path d="M80.4107023,9.884 C81.2413893,9.884 81.9761985,9.92949618 82.7021527,9.86919084 C83.2552824,9.82323664 83.5372672,9.41514504 83.5452061,8.86338931 C83.5534504,8.30155725 83.1975725,8.0191145 82.690855,7.97728244 C82.0850534,7.92720611 81.4705496,7.9218626 80.8650534,7.96766412 C80.7036794,7.97987786 80.4529924,8.23575573 80.4314656,8.404 C80.3716183,8.87224427 80.4107023,9.35316031 80.4107023,9.884 M80.472687,10.8145344 L80.472687,13.0511756 C81.2664275,13.0511756 82.000626,13.0763664 82.7323817,13.044 C83.4354351,13.012855 83.8571145,12.5873588 83.8798626,11.9678168 C83.9023053,11.354687 83.4997099,10.8754504 82.8030687,10.8264427 C82.0490229,10.7734656 81.2884122,10.8145344 80.472687,10.8145344 M79.4461221,13.8894962 L79.4461221,7.17316031 C80.8000153,7.17316031 82.141542,7.08781679 83.4604733,7.22262595 C83.8841374,7.26583206 84.440626,7.82201527 84.5977252,8.26384733 C84.8795573,9.05743511 84.6154351,9.81941985 83.6658168,10.2563664 C84.4899389,10.584916 85.0403206,11.0259847 85.0905496,11.8792672 C85.1551298,12.9760611 84.412229,13.8375878 83.2613893,13.8792672 C82.0192519,13.924458 80.7740611,13.8894962 79.4461221,13.8894962" id="Fill-41" fill="#000000"></path>
                        <path d="M41.0305191,10.4790534 C40.1586107,10.5692824 39.3294504,10.5934046 38.5283817,10.7561527 C37.8015115,10.9037863 37.4025802,11.5332519 37.4996794,12.1375267 C37.599374,12.7578321 38.1346412,13.134626 38.9114351,13.1311145 C40.1622748,13.1254656 41.0202901,12.1384427 41.0305191,10.4790534 M41.066855,12.7549313 C40.2125038,13.9332519 39.2190687,14.1625649 38.098458,13.9953893 C37.2274656,13.8656183 36.5471603,13.2575267 36.378916,12.4782901 C36.1787634,11.5511145 36.5250229,10.607145 37.3767786,10.2132519 C37.978916,9.93477863 38.6740305,9.82332824 39.3407481,9.72989313 C39.8845649,9.65370992 40.4476183,9.71432061 40.9920458,9.71432061 C41.1147939,8.69294656 40.8523511,8.1479084 40.1708244,7.92180153 C39.0758626,7.55874809 38.0288397,7.95203053 37.4294504,8.98836641 C37.1586107,8.93661069 36.8703664,8.88164885 36.5431908,8.81920611 C36.587313,8.62943511 36.6019695,8.50653435 36.6442595,8.39401527 C37.0787634,7.23569466 38.3634962,6.72775573 40.1653282,6.99752672 C41.3772366,7.17905344 42.0038015,7.82836641 42.0407481,9.10042748 C42.0863969,10.666229 42.0517405,12.2343206 42.0517405,13.8491298 C41.3992214,14.1007328 41.009145,13.8410382 41.066855,12.7549313" id="Fill-43" fill="#000000"></path>
                        <path d="M49.4036641,9.7498626 L52.9638168,9.7498626 C52.8856489,8.55948092 52.2909924,7.8779542 51.3509924,7.83108397 C50.3119084,7.77917557 49.5621374,8.50696183 49.4036641,9.7498626 M54.2833588,10.6820763 L49.3937405,10.6820763 C49.310687,11.832458 49.7870229,12.7428397 50.5636641,13.0249771 C51.4505344,13.3469618 52.2667176,13.0071145 52.9645802,12.1861985 C53.1622901,11.9535267 53.6456489,11.9636031 54.1262595,11.8254351 C53.6659542,13.2565802 52.7416794,13.9594809 51.4569466,14.0384122 C50.0639695,14.1240611 48.9516031,13.501771 48.4384733,12.2938321 C47.9592366,11.1660458 47.9709924,10.0084885 48.4271756,8.87810687 C48.9883969,7.48741985 50.1087023,6.84451908 51.6444275,6.97474809 C52.9067176,7.08161832 53.800916,7.95978626 54.100916,9.40803053 C54.1772519,9.77658015 54.209313,10.1542901 54.2833588,10.6820763" id="Fill-45" fill="#000000"></path>
                        <path d="M87.0145344,10.4343206 C87.1255267,10.985313 87.1716336,11.4979847 87.3365191,11.9691298 C87.6207939,12.7808855 88.2113282,13.1465344 89.0270534,13.1268397 C89.8473588,13.107145 90.3620153,12.6625649 90.6094962,11.9218015 C90.9420153,10.9268397 90.9339237,9.92027481 90.5458321,8.93630534 C90.274229,8.24760305 89.7403359,7.90149618 89.0098015,7.88531298 C88.283542,7.86912977 87.6960611,8.17096183 87.4215573,8.85172519 C87.2169771,9.35890076 87.1421679,9.91844275 87.0145344,10.4343206 M92.0391145,10.4805802 C92.0618626,12.8297405 90.6233893,14.2616489 88.4965191,14.006687 C86.9792672,13.824855 85.9786565,12.5604275 85.8662901,10.6830229 C85.714229,8.13890076 87.6966718,6.40485496 89.9487328,7.11203053 C91.2496489,7.52073282 92.0224733,8.76622901 92.0391145,10.4805802" id="Fill-47" fill="#000000"></path>
                        <path d="M24.0682901,11.8626718 C24.7000458,13.0631298 25.6513435,13.4629771 26.8130229,13.0783969 C27.3870687,12.8884733 27.7206565,12.5263359 27.6794351,11.8976336 C27.6377557,11.2619084 27.235313,10.940229 26.6524122,10.8522901 C26.2308855,10.788626 25.7974504,10.8038931 25.3183664,10.7814504 L25.3183664,10.0272519 C25.8014198,9.9689313 26.2582137,9.9429771 26.7017252,9.85274809 C27.2304275,9.7451145 27.6569924,9.39198473 27.5189771,8.85335878 C27.4261527,8.4910687 27.0437099,8.06419847 26.6916489,7.93366412 C25.6853893,7.56053435 24.9108855,7.95977099 24.1601985,9.08877863 C23.9078321,9.01793893 23.6453893,8.94419847 23.2779084,8.84083969 C23.4340916,8.51 23.524626,8.19442748 23.7087481,7.94908397 C24.5423359,6.83931298 27.0289008,6.58954198 28.1017252,7.48694656 C29.0285954,8.26251908 28.9058473,9.41961832 28.0125649,10.1351908 C28.2444733,10.4832824 28.5800458,10.8269466 28.716229,11.2368702 C28.8522595,11.6458779 28.9067634,12.1553435 28.7895115,12.5608397 C28.4853893,13.6130534 27.6211145,13.9838931 26.6101221,13.9999237 C25.9576031,14.0103053 25.2811145,13.9951908 24.6551603,13.8353435 C23.8006565,13.6171756 23.3110382,12.9739695 23.1392824,12.0693893 C23.446,12.001145 23.7386718,11.9359542 24.0682901,11.8626718" id="Fill-49" fill="#000000"></path>
                        <path d="M22.0034198,13.8695725 L21.098687,13.8695725 L21.098687,9.47140458 C21.039145,9.44865649 20.9794504,9.4259084 20.9199084,9.40316031 C19.8695267,10.8439237 18.6052519,12.1300305 17.7399084,13.8512519 L17.008458,13.8512519 L17.008458,7.14468702 L17.9072366,7.14468702 L17.9072366,11.8787328 C19.1244885,10.2373588 20.2192977,8.76148092 21.3139542,7.28575573 C21.2541069,7.23170992 21.1941069,7.17766412 21.1342595,7.12377099 L22.0034198,7.12377099 L22.0034198,13.8695725 Z" id="Fill-51" fill="#000000"></path>
                        <path d="M64.0781832,13.0548244 C64.5271908,13.082 65.2189466,13.1447481 65.5852061,12.4160458 C65.9592519,11.672229 65.6873435,10.5777252 64.2427634,10.6307023 C62.4994046,10.6946718 62.7826107,10.462916 62.7612366,11.9659695 C62.7456641,13.0551298 62.7580305,13.0552824 64.0781832,13.0548244 M61.762458,13.8994046 L61.762458,7.13680916 L62.7600153,7.13680916 L62.7600153,9.76261069 C63.4739084,9.76261069 64.1009313,9.75131298 64.7274962,9.76490076 C66.1703969,9.79619847 66.9116183,10.5148244 66.893145,11.8470382 C66.8749771,13.1545191 66.0887176,13.8885649 64.6839847,13.8981832 C63.7239847,13.9047481 62.7639847,13.8994046 61.762458,13.8994046" id="Fill-53" fill="#000000"></path>
                        <path d="M72.2001374,11.503374 C72.4760153,11.5494809 72.7419695,11.5939084 72.9996794,11.6371145 C72.9671603,12.7572672 72.3628855,13.5813893 71.3708244,13.9157405 C70.2847176,14.2818473 68.9665496,13.9151298 68.3288397,13.0697863 C67.3532672,11.7765038 67.3834962,9.2268855 68.3894504,7.96337405 C69.0824275,7.09299237 70.2285344,6.7441374 71.3425802,7.06429008 C72.3022748,7.34032061 72.9096031,8.13818321 73.0259389,9.34108397 C72.769145,9.38871756 72.5054809,9.43757252 72.2005954,9.49406107 C72.0761679,9.2100916 71.9741832,8.92917557 71.8347939,8.66825954 C71.318,7.7009313 70.0241069,7.60917557 69.3624275,8.48581679 C68.6842595,9.38429008 68.6150992,11.461084 69.2314351,12.4204733 C69.8459389,13.3771145 71.1628855,13.3855115 71.769145,12.4241374 C71.9297557,12.1693282 72.0285344,11.8754351 72.2001374,11.503374" id="Fill-55" fill="#000000"></path>
                        <path d="M60.0507176,13.852855 L59.0881221,13.852855 L59.0881221,7.99987786 L56.9875115,7.99987786 C56.882626,9.26247328 56.814229,10.5227786 56.6646107,11.773313 C56.4959084,13.182626 55.7603359,13.8633893 54.4556031,13.8557557 C54.4388092,13.6243053 54.4215573,13.3861374 54.4000305,13.0881221 C55.5869008,12.8607939 55.8154504,11.9698015 55.8687328,10.974687 C55.9363664,9.71239695 55.9890382,8.44949618 56.0504122,7.13819847 L60.0507176,7.13819847 L60.0507176,13.852855 Z" id="Fill-57" fill="#000000"></path>
                        <path d="M75.4509618,7.94035115 L73.3802748,7.94035115 C73.3521832,7.65241221 73.3311145,7.43546565 73.3033282,7.1508855 L78.6095878,7.1508855 L78.6095878,7.93622901 L76.5450076,7.93622901 L76.5450076,13.8336336 L75.4509618,13.8336336 L75.4509618,7.94035115 Z" id="Fill-59" fill="#000000"></path>
                        <path d="M45.8417252,13.8563359 L44.8093588,13.8563359 L44.8093588,7.96274809 L42.6998931,7.96274809 C42.6724122,7.6470229 42.6534809,7.42900763 42.6290534,7.14854962 L47.9295115,7.14854962 C47.9397405,7.37572519 47.9495115,7.59022901 47.9632519,7.89251908 C47.2530229,7.92687023 46.5861527,7.95908397 45.8417252,7.9951145 L45.8417252,13.8563359 Z" id="Fill-61" fill="#000000"></path>
                        <path d="M56.9836794,35.0025344 C57.2343664,34.4077252 57.3957405,34.0191756 57.5616947,33.632458 C57.7189466,33.2657405 57.8807786,32.900855 58.0613893,32.4878779 C57.7528397,32.4261985 57.5129924,32.3782595 57.231313,32.3220763 L57.231313,30.1961221 L59.1105496,30.1961221 C59.652687,31.9634504 58.7194046,33.3164275 57.9485649,34.6941374 C57.8519237,34.8668092 57.443374,34.8649771 56.9836794,35.0025344" id="Fill-63" fill="#000000"></path>
                    </g>
                </g>
            </g>
        </g>
    </g>
</svg>