<?xml version="1.0" encoding="UTF-8" standalone="no"?>
<svg width="133px" height="42px" viewBox="0 0 133 42" version="1.1" xmlns="http://www.w3.org/2000/svg" xmlns:xlink="http://www.w3.org/1999/xlink">
    <!-- Generator: Sketch 3.7.1 (28215) - http://www.bohemiancoding.com/sketch -->
    <title>Ventana Graph</title>
    <desc>Created with Sketch.</desc>
    <defs>
        <polygon id="path-1" points="11.19328 10.9820535 11.19328 0.577884507 0.384695111 0.577884507 0.384695111 10.9820535 11.19328 10.9820535"></polygon>
    </defs>
    <g id="Главная-страница" stroke="none" stroke-width="1" fill="none" fill-rule="evenodd">
        <g id="1920_Index_neavtorizovan" transform="translate(-1206.000000, -14.000000)">
            <g id="logo-izdatelstv" transform="translate(0.000000, -1.000000)">
                <g id="Hover-state" transform="translate(288.000000, 12.000000)">
                    <g id="Ventana-Graph" transform="translate(918.000000, 3.000000)">
                        <path d="M42.9656796,14.7124225 C41.1746129,15.2258873 39.6099418,16.2764789 38.456684,17.6766761 C37.1633329,19.2496056 36.3854307,21.2644225 36.3854307,23.4614366 L36.3854307,30.0962535 C36.3854307,35.1232394 32.3109018,39.1984225 27.2888218,39.1984225 L27.2888218,21.0011831 L27.2888218,20.9964507 C27.2888218,26.0222535 23.2166573,30.0962535 18.1945773,30.0962535 C13.170724,30.0962535 9.09974178,26.021662 9.09796844,20.9940845 L9.09796844,2.79033803 C14.1206396,2.79033803 18.1945773,6.86433803 18.1945773,11.892507 C23.2166573,11.892507 27.2888218,15.966507 27.2888218,20.9923099 C27.2894129,15.966507 31.3627596,11.892507 36.3854307,11.892507 C37.8673462,11.892507 39.2700529,12.2480282 40.5078396,12.8792113 C40.7797507,13.0578592 41.063484,13.223493 41.3566751,13.3725634 C41.9448307,13.7564789 42.4845151,14.2060563 42.9656796,14.7124225" id="Fill-1" fill="#EA5A0C"></path>
                        <path d="M18.1945773,30.0962535 C18.1945773,35.123831 22.2649684,39.1984225 27.2888218,39.1984225 L27.2888218,21 L27.2888218,20.9964507 C27.2888218,26.0222535 23.2166573,30.0962535 18.1945773,30.0962535 M27.2888218,2.79033803 C22.2649684,2.79033803 18.1945773,6.86433803 18.1945773,11.892507 C23.2166573,11.892507 27.2888218,15.966507 27.2888218,20.9923099 C27.2894129,15.966507 31.3627596,11.892507 36.3848396,11.892507 C36.3848396,6.86433803 32.3109018,2.79033803 27.2888218,2.79033803 M9.09796844,20.9940845 C4.07411511,20.9940845 0.000177333333,25.0692676 0.000177333333,30.0962535 C0.000177333333,35.123831 4.07411511,39.1984225 9.09796844,39.1984225 C14.1206396,39.1984225 18.1945773,35.123831 18.1945773,30.0962535 C13.170724,30.0962535 9.09974178,26.021662 9.09796844,20.9940845 M9.09796844,20.9940845 C4.07411511,20.9940845 0.000177333333,16.9200845 0.000177333333,11.892507 C0.000177333333,6.86433803 4.07411511,2.79033803 9.09796844,2.79033803 C9.09796844,8.90104225 9.09974178,15.966507 9.09796844,20.9940845" id="Fill-3" fill="#BCBCBB"></path>
                        <polygon id="Fill-5" fill="#EA5A0C" points="53.5923204 2.16311831 51.2674804 4.63993521 51.2674804 1.0374 51.7977071 1.0374 51.7977071 3.36632958 54.1290493 0.890104225 54.1290493 4.49145634 53.5923204 4.49145634"></polygon>
                        <path d="M55.4568622,1.47561972 C55.7536,1.12542254 56.0562489,0.96984507 56.50372,0.96984507 C56.8660711,0.96984507 57.1054711,1.08223944 57.2609333,1.21474648 C57.4873289,1.40522535 57.5476222,1.62291549 57.5476222,1.86190141 C57.5476222,2.26947887 57.3117689,2.48598592 57.1232044,2.59246479 C57.5564889,2.7113662 57.7633778,3.05978873 57.7633778,3.46914085 C57.7633778,3.81638028 57.6510667,4.10683099 57.3159067,4.32925352 C57.0865556,4.47773239 56.7880444,4.56291549 56.50372,4.56291549 C55.8558622,4.56291549 55.44504,4.23992958 55.1991378,3.72883099 L55.6643422,3.48629577 C55.8800978,4.02756338 56.3683556,4.06838028 56.5468711,4.06838028 C56.67396,4.06838028 56.8566133,4.03880282 56.9907956,3.95243662 C57.1970933,3.82702817 57.2313778,3.6365493 57.2313778,3.5058169 C57.2313778,2.9633662 56.7301156,2.91308451 56.4162356,2.91308451 L56.1088578,2.91308451 L56.1088578,2.4185493 L56.4162356,2.4185493 C56.78036,2.4185493 57.0351289,2.22688732 57.0351289,1.90212676 C57.0351289,1.78677465 57.0049822,1.68502817 56.9163156,1.60102817 C56.7921822,1.48212676 56.6390844,1.46142254 56.5072667,1.46142254 C56.3098356,1.46142254 56.0396978,1.49987324 55.8068,1.81339437 L55.4568622,1.47561972 Z" id="Fill-7" fill="#EA5A0C"></path>
                        <path d="M59.8206809,2.62541408 C59.8206809,3.16549859 59.7532942,3.44175211 59.7000942,3.58904789 C59.635072,3.76059718 59.5505431,3.89073803 59.4264098,3.99780845 L60.9189653,3.99780845 L60.9189653,1.53223099 L59.8206809,1.53223099 L59.8206809,2.62541408 Z M61.449192,1.03769577 L61.449192,3.99780845 L61.8340053,3.99780845 L61.8340053,5.27437183 L61.342792,5.27437183 L61.342792,4.49116056 L59.1113476,4.49116056 L59.1113476,5.27437183 L58.618952,5.27437183 L58.618952,3.99780845 C58.8660364,3.99307606 59.0593298,3.80200563 59.1651387,3.53107606 C59.252032,3.31279437 59.2898631,3.05192113 59.2898631,2.62245634 L59.2898631,1.03769577 L61.449192,1.03769577 Z" id="Fill-9" fill="#EA5A0C"></path>
                        <path d="M64.6820969,3.15828169 L64.1678302,1.99352113 L63.6340569,3.15828169 L64.6820969,3.15828169 Z M64.8889858,3.6528169 L63.4253947,3.6528169 L63.0429458,4.49104225 L62.4719324,4.49104225 L64.187928,0.84 L65.8258969,4.49104225 L65.2548836,4.49104225 L64.8889858,3.6528169 Z" id="Fill-11" fill="#EA5A0C"></path>
                        <polygon id="Fill-13" fill="#EA5A0C" points="67.6173773 1.53193521 67.6173773 4.49145634 67.0853773 4.49145634 67.0853773 1.53193521 66.2944707 1.53193521 66.2944707 1.0374 68.4059196 1.0374 68.4059196 1.53193521"></polygon>
                        <polygon id="Fill-15" fill="#EA5A0C" points="71.3022458 1.53193521 69.9326413 1.53193521 69.9326413 2.36187887 71.2638236 2.36187887 71.2638236 2.85345634 69.9326413 2.85345634 69.9326413 3.99751268 71.3022458 3.99751268 71.3022458 4.49145634 69.4012324 4.49145634 69.4012324 1.0374 71.3022458 1.0374"></polygon>
                        <path d="M75.0567471,1.03757746 L75.0567471,4.4916338 L74.5253382,4.4916338 L74.5253382,1.53211268 L73.3850849,1.53211268 L73.3850849,3.25411268 C73.3850849,3.6528169 73.3620316,4.04323944 73.0357382,4.31357746 C72.9104227,4.42005634 72.7147649,4.52002817 72.428076,4.52002817 C72.3352716,4.52002817 72.2501516,4.51292958 72.1756716,4.4916338 L72.1756716,3.99769014 C72.2182316,4.01011268 72.2832538,4.02726761 72.3506404,4.02726761 C72.4670893,4.02726761 72.6101382,3.97816901 72.6798893,3.91487324 C72.8448093,3.75752113 72.8513116,3.36650704 72.8513116,3.09498592 L72.8513116,1.03757746 L75.0567471,1.03757746 Z" id="Fill-17" fill="#EA5A0C"></path>
                        <path d="M76.9274956,3.99780845 L77.2933933,3.99780845 C77.42462,3.99780845 77.97258,3.99780845 77.97258,3.46955493 C77.97258,3.31279437 77.91938,2.92296338 77.3010778,2.92296338 L76.9274956,2.92296338 L76.9274956,3.99780845 Z M76.39786,1.03769577 L76.9274956,1.03769577 L76.9274956,2.42842817 L77.3123089,2.42842817 C77.7526867,2.42842817 78.0210511,2.56744225 78.18006,2.70645634 C78.3745356,2.87209014 78.50458,3.15544225 78.50458,3.45890704 C78.50458,3.71268169 78.4129578,4.0835831 78.0783889,4.30600563 C77.8224378,4.47814648 77.5452067,4.49116056 77.3223578,4.49116056 L76.39786,4.49116056 L76.39786,1.03769577 Z" id="Fill-19" fill="#EA5A0C"></path>
                        <path d="M82.130692,1.84758592 C81.768932,1.49088169 81.3876653,1.46130423 81.2002831,1.46130423 C80.4501631,1.46130423 79.9619053,2.01913521 79.9619053,2.77750141 C79.9619053,3.51398028 80.470852,4.06826197 81.2002831,4.06826197 C81.3634298,4.06826197 81.7441053,4.03868451 82.130692,3.66600845 L82.130692,4.30192394 C82.0237009,4.36995211 81.7039098,4.56279718 81.1866876,4.56279718 C80.8905409,4.56279718 80.4040564,4.50127606 79.9619053,4.08364225 C79.6261542,3.76065634 79.4109898,3.34065634 79.4109898,2.77750141 C79.4109898,2.33029014 79.5463542,1.82155775 79.9619053,1.42640282 C80.321892,1.08212113 80.7362609,0.969726761 81.2109231,0.969726761 C81.6542564,0.969726761 81.9214387,1.08212113 82.130692,1.22468451 L82.130692,1.84758592 Z" id="Fill-21" fill="#EA5A0C"></path>
                        <polygon id="Fill-23" fill="#EA5A0C" points="83.8371116 2.41440845 85.1665204 1.03728169 85.8563471 1.03728169 84.2993604 2.60015493 85.8669871 4.49133803 85.1665204 4.49133803 83.8371116 2.8326338 83.8371116 4.49133803 83.3003827 4.49133803 83.3003827 1.03728169 83.8371116 1.03728169"></polygon>
                        <polygon id="Fill-25" fill="#EA5A0C" points="89.1872582 2.16311831 86.8582804 4.63993521 86.8582804 1.0374 87.3938271 1.0374 87.3938271 3.36632958 89.7222138 0.890104225 89.7222138 4.49145634 89.1872582 4.49145634"></polygon>
                        <path d="M92.0469947,0 C92.1049236,0.187521127 92.2863947,0.28571831 92.490328,0.28571831 C92.6907147,0.28571831 92.8745502,0.187521127 92.9301147,0 L93.3427102,0.183971831 C93.1943413,0.553098592 92.8266702,0.712816901 92.490328,0.712816901 C92.1510302,0.712816901 91.7833591,0.553098592 91.633808,0.183971831 L92.0469947,0 Z M93.3864524,2.16329577 L91.0604302,4.63952113 L91.0604302,1.03757746 L91.5930213,1.03757746 L91.5930213,3.36650704 L93.9196347,0.89028169 L93.9196347,4.49104225 L93.3864524,4.49104225 L93.3864524,2.16329577 Z" id="Fill-27" fill="#EA5A0C"></path>
                        <polygon id="Fill-29" fill="#EA5A0C" points="97.2444573 1.04201408 97.7770484 1.04201408 97.7770484 4.00390141 99.1998529 4.00390141 99.1998529 1.04201408 99.7318529 1.04201408 99.7318529 4.00390141 100.176368 4.00390141 100.176368 5.27928169 99.684564 5.27928169 99.684564 4.49666197 97.2444573 4.49666197"></polygon>
                        <polygon id="Fill-31" fill="#EA5A0C" points="103.093561 1.53643099 101.721592 1.53643099 101.721592 2.36637465 103.052774 2.36637465 103.052774 2.85795211 101.721592 2.85795211 101.721592 4.0037831 103.093561 4.0037831 103.093561 4.49654366 101.189001 4.49654366 101.189001 1.04189577 103.093561 1.04189577"></polygon>
                        <polygon id="Fill-33" fill="#EA5A0C" points="104.824925 2.39565634 106.292654 2.39565634 106.292654 1.04219155 106.826428 1.04219155 106.826428 4.49683944 106.292654 4.49683944 106.292654 2.8872338 104.824925 2.8872338 104.824925 4.49683944 104.292925 4.49683944 104.292925 1.04219155 104.824925 1.04219155"></polygon>
                        <polygon id="Fill-35" fill="#EA5A0C" points="109.142342 1.53643099 109.142342 4.49654366 108.608568 4.49654366 108.608568 1.53643099 107.819435 1.53643099 107.819435 1.04189577 109.929702 1.04189577 109.929702 1.53643099"></polygon>
                        <path d="M111.455773,2.60127887 L111.686307,2.60127887 C111.919204,2.60127887 112.332391,2.54508169 112.332391,2.06296901 C112.332391,1.56074366 111.866596,1.53649014 111.68276,1.53649014 L111.455773,1.53649014 L111.455773,2.60127887 Z M111.68276,1.04195493 C111.91152,1.04195493 112.175156,1.05792676 112.4382,1.23006761 C112.780453,1.45603944 112.866164,1.81096901 112.866164,2.06829296 C112.866164,2.42972958 112.703609,2.67640563 112.531004,2.82310986 C112.260867,3.05736338 111.937529,3.09403944 111.686307,3.09403944 L111.455773,3.09403944 L111.455773,4.49660282 L110.922591,4.49660282 L110.922591,1.04195493 L111.68276,1.04195493 Z" id="Fill-37" fill="#EA5A0C"></path>
                        <path d="M54.4144378,19.0070704 L55.9773356,19.0070704 C57.3020156,19.0070704 57.4763933,18.4202535 57.4763933,17.682 C57.4763933,16.9656338 56.8238067,16.638507 55.8266022,16.638507 L54.4144378,16.638507 L54.4144378,19.0070704 Z M54.4144378,14.9886761 L55.5866111,14.9886761 C56.4756422,14.9886761 57.3020156,14.7715775 57.3020156,13.752338 C57.3020156,12.9253521 56.4756422,12.6431831 55.5866111,12.6431831 L54.4144378,12.6431831 L54.4144378,14.9886761 Z M56.7369133,10.8188451 C58.2797133,10.8188451 60.5572644,11.165493 60.5572644,13.2294085 C60.5572644,14.5107042 59.4294244,15.3583944 58.4730067,15.509831 C59.4294244,15.7269296 60.7322333,16.3581127 60.7322333,17.9209859 C60.7322333,19.5938873 59.5801578,20.8314085 57.3020156,20.8314085 L51.2673622,20.8314085 L51.2673622,10.8188451 L56.7369133,10.8188451 Z" id="Fill-39" fill="#EA5A0C"></path>
                        <path d="M70.1810853,14.6848563 C70.0498587,13.3148282 69.2234853,12.4908 68.0111164,12.4908 C66.7733298,12.4908 65.9688276,13.2947155 65.838192,14.6848563 L70.1810853,14.6848563 Z M72.7837476,19.7035606 C70.982632,21.0268563 69.0958053,21.0268563 68.3143564,21.0268563 C64.7978364,21.0268563 62.5167387,18.9854197 62.5167387,15.857307 C62.5167387,12.7948563 64.710352,10.6226873 67.7924053,10.6226873 C70.7000809,10.6226873 73.1112231,12.6860113 72.9587164,16.3358704 L65.774352,16.3358704 C65.8825253,18.1176169 67.0978498,19.1593352 69.0721609,19.1593352 C70.333592,19.1593352 71.307152,18.7896169 72.7837476,17.7260113 L72.7837476,19.7035606 Z" id="Fill-41" fill="#EA5A0C"></path>
                        <polygon id="Fill-43" fill="#EA5A0C" points="85.0523769 20.8314085 81.9058924 20.8314085 81.9058924 16.8556056 78.1511547 16.8556056 78.1511547 20.8314085 75.0028969 20.8314085 75.0028969 10.8188451 78.1511547 10.8188451 78.1511547 14.7053239 81.9058924 14.7053239 81.9058924 10.8188451 85.0523769 10.8188451"></polygon>
                        <polygon id="Fill-45" fill="#EA5A0C" points="90.2274956 20.8314085 90.2274956 12.9679437 86.6459533 12.9679437 86.6459533 10.8188451 96.9567044 10.8188451 96.9567044 12.9679437 93.37398 12.9679437 93.37398 20.8314085"></polygon>
                        <path d="M103.907284,15.9892817 C102.038782,16.6618732 101.150933,17.0948873 101.150933,18.0957887 C101.150933,18.6814225 101.607271,19.1593944 102.170009,19.1593944 C102.756391,19.1593944 103.387107,18.8778169 103.907284,18.3980704 L103.907284,15.9892817 Z M108.769764,20.115338 C107.901422,20.6370845 106.663636,21.0269155 105.816573,21.0269155 C104.775627,21.0269155 104.276729,20.7021549 104.056836,19.8976479 C102.843284,20.7228592 101.84608,21.0269155 100.7608,21.0269155 C99.15416,21.0269155 97.9589333,19.833169 97.9589333,18.5737606 C97.9589333,16.1833099 99.7163067,15.705338 103.907284,14.4015634 C103.972307,13.4669155 103.538431,12.7298451 102.170009,12.7298451 C100.911533,12.7298451 99.47868,13.3817324 98.4802933,14.4015634 L98.4802933,11.8401549 C99.7831022,11.0362394 101.236644,10.6227465 102.820822,10.6227465 C105.339547,10.6227465 107.05436,11.4704366 107.05436,13.6633099 L107.05436,18.2259296 C107.05436,18.7251972 107.2512,18.9192254 107.57572,18.9192254 C107.792658,18.9192254 108.032649,18.8778169 108.769764,18.3554789 L108.769764,20.115338 Z" id="Fill-47" fill="#EA5A0C"></path>
                        <polygon id="Fill-49" fill="#EA5A0C" points="120.127078 20.8314085 116.980002 20.8314085 116.980002 16.8556056 113.227038 16.8556056 113.227038 20.8314085 110.077598 20.8314085 110.077598 10.8188451 113.227038 10.8188451 113.227038 14.7053239 116.980002 14.7053239 116.980002 10.8188451 120.127078 10.8188451"></polygon>
                        <g id="Group-53" transform="translate(121.768889, 10.044862)">
                            <mask id="mask-2" fill="white">
                                <use xlink:href="#path-1"></use>
                            </mask>
                            <g id="Clip-52"></g>
                            <path d="M6.331864,5.94441972 C4.46631733,6.61701127 3.57551289,7.05002535 3.57551289,8.05092676 C3.57551289,8.63656056 4.03303289,9.11453239 4.59517956,9.11453239 C5.18097067,9.11453239 5.81286844,8.83295493 6.331864,8.35320845 L6.331864,5.94441972 Z M11.1937529,10.0704761 C10.3260018,10.5922225 9.08821511,10.9820535 8.24233511,10.9820535 C7.20138844,10.9820535 6.70130844,10.657293 6.48437067,9.85278592 C5.26904622,10.6779972 4.27184178,10.9820535 3.18656178,10.9820535 C1.57992178,10.9820535 0.384695111,9.78830704 0.384695111,8.52889859 C0.384695111,6.13844789 2.14384178,5.66047606 6.331864,4.35670141 C6.39806844,3.42205352 5.96419289,2.6849831 4.59517956,2.6849831 C3.33729511,2.6849831 1.90444178,3.33687042 0.906055111,4.35670141 L0.906055111,1.79529296 C2.20709067,0.991377465 3.66240622,0.577884507 5.246584,0.577884507 C7.76649067,0.577884507 9.47834844,1.42557465 9.47834844,3.61844789 L9.47834844,8.18106761 C9.47834844,8.68033521 9.67577956,8.87436338 10.0002996,8.87436338 C10.2184196,8.87436338 10.4578196,8.83295493 11.1937529,8.3106169 L11.1937529,10.0704761 Z" id="Fill-51" fill="#EA5A0C" mask="url(#mask-2)"></path>
                        </g>
                        <polygon id="Fill-54" fill="#BCBCBB" points="59.1427356 29.1685859 54.4043889 29.1685859 54.4043889 37.0089803 51.2673622 37.0089803 51.2673622 27.0254028 59.1427356 27.0254028"></polygon>
                        <path d="M63.8041196,34.4520676 C64.4312884,34.9063775 64.9940262,35.1015887 65.6170573,35.1015887 C67.1551284,35.1015887 68.1079996,33.9332789 68.1079996,32.0710817 C68.1079996,30.1657014 67.2437951,29.0600958 65.7494662,29.0600958 C65.0785551,29.0600958 64.5808396,29.2541239 63.8041196,29.8592789 L63.8041196,34.4520676 Z M63.8041196,27.8906028 C64.6907862,27.1523493 65.5750884,26.8275887 66.6585951,26.8275887 C69.2571196,26.8275887 71.2858129,29.0393915 71.2858129,31.8977577 C71.2858129,35.1015887 69.3416484,37.2027718 66.376044,37.2027718 C65.4899684,37.2027718 64.5359151,36.9418986 63.8041196,36.5088845 L63.8041196,41.9884056 L60.6641373,41.9884056 L60.6641373,27.0251662 L63.8041196,27.0251662 L63.8041196,27.8906028 Z" id="Fill-56" fill="#BCBCBB"></path>
                        <path d="M78.6973413,32.1783296 C76.8371147,32.849738 75.9510391,33.2839352 75.9510391,34.2801042 C75.9510391,34.8621887 76.4050124,35.3383859 76.9671591,35.3383859 C77.5488124,35.3383859 78.1783458,35.0585831 78.6973413,34.5812028 L78.6973413,32.1783296 Z M83.5432702,36.2913718 C82.6796569,36.8125268 81.446008,37.2029493 80.6024924,37.2029493 C79.5621369,37.2029493 79.062648,36.8781887 78.8474836,36.0766394 C77.6398436,36.9000761 76.642048,37.2029493 75.5591324,37.2029493 C73.9601769,37.2029493 72.7679058,36.011569 72.7679058,34.7557099 C72.7679058,32.3723577 74.519368,31.8973437 78.6973413,30.5977099 C78.7623636,29.6666113 78.3308524,28.9307239 76.9671591,28.9307239 C75.7116391,28.9307239 74.2805591,29.5784704 73.2869013,30.5977099 L73.2869013,28.0410338 C74.5849813,27.2400761 76.035568,26.8277662 77.6161991,26.8277662 C80.126648,26.8277662 81.8331858,27.6748648 81.8331858,29.8594563 L81.8331858,34.409062 C81.8331858,34.9059634 82.0306169,35.1011746 82.3533636,35.1011746 C82.5714836,35.1011746 82.8097013,35.0585831 83.5432702,34.5397944 L83.5432702,36.2913718 Z" id="Fill-58" fill="#BCBCBB"></path>
                        <path d="M93.4838084,28.8878366 L93.4838084,35.1464282 C94.6938129,35.1464282 96.1455818,34.1053014 96.1455818,31.9378648 C96.1455818,29.8828225 94.6938129,28.8878366 93.4838084,28.8878366 L93.4838084,28.8878366 Z M90.3438262,35.1464282 L90.3438262,28.8878366 C89.1361862,28.8878366 87.682644,29.8828225 87.682644,31.9378648 C87.682644,34.1053014 89.1361862,35.1464282 90.3438262,35.1464282 L90.3438262,35.1464282 Z M90.3438262,22.2376394 L93.4838084,22.2376394 L93.4838084,27.0256394 C95.8423418,27.0256394 99.498364,28.0638085 99.498364,32.0283718 C99.498364,36.0349352 95.8423418,37.0092169 93.4838084,37.0092169 L93.4838084,41.9882873 L90.3438262,41.9882873 L90.3438262,37.0092169 C87.9882484,37.0092169 84.3280884,36.0349352 84.3280884,32.0283718 C84.3280884,28.0638085 87.9882484,27.0256394 90.3438262,27.0256394 L90.3438262,22.2376394 Z" id="Fill-60" fill="#BCBCBB"></path>
                    </g>
                </g>
            </g>
        </g>
    </g>
</svg>