<?xml version="1.0" encoding="UTF-8" standalone="no"?>
<svg width="152px" height="40px" viewBox="0 0 152 40" version="1.1" xmlns="http://www.w3.org/2000/svg" xmlns:xlink="http://www.w3.org/1999/xlink">
    <!-- Generator: Sketch 3.7.1 (28215) - http://www.bohemiancoding.com/sketch -->
    <title>DROFA</title>
    <desc>Created with Sketch.</desc>
    <defs>
        <polygon id="path-1" points="28.8152414 0.0180446735 0.180662939 0.0180446735 0.180662939 39.0500117 28.8152414 39.0500117 28.8152414 0.0180446735"></polygon>
        <polygon id="path-3" points="0.00927853637 32.8453608 21.2391756 32.8453608 21.2391756 0.0775489283 0.00927853637 0.0775489283 0.00927853637 32.8453608"></polygon>
        <polygon id="path-5" points="0 0.125470195 0 26.5658412 24.9735751 26.5658412 24.9735751 0.125470195"></polygon>
    </defs>
    <g id="Главная-страница" stroke="none" stroke-width="1" fill="none" fill-rule="evenodd">
        <g id="1920_Index_neavtorizovan" transform="translate(-1512.000000, -15.000000)">
            <g id="logo-izdatelstv" transform="translate(0.000000, -1.000000)">
                <g id="Hover-state" transform="translate(288.000000, 12.000000)">
                    <g id="DROFA" transform="translate(1224.000000, 4.000000)">
                        <path d="M143.952399,9.32453436 C141.414781,9.53539347 138.943813,9.49768213 136.588118,10.0011082 C133.954473,10.5637371 131.833375,12.2082354 130.728257,14.7393557 C129.794123,16.8787646 129.417106,19.1657749 129.844162,21.5448333 C130.50622,25.233043 132.359901,27.9640739 135.992104,29.1793522 C137.451549,29.6677749 139.014719,29.8974897 140.549932,30.0913179 C141.661735,30.2316203 142.805345,30.118689 143.952399,30.118689 L143.952399,9.32453436 Z M151.207891,33.0940326 C147.497692,33.073555 143.785062,33.1299192 140.077901,33.012933 C135.35699,32.8637096 131.181244,31.3400498 128.447925,27.2621564 C127.457066,25.7841151 126.830664,23.9686993 126.415763,22.217555 C125.708325,19.2312629 126.275572,16.3080258 127.629671,13.5644244 C129.369498,10.0396306 132.268129,7.93651375 136.019859,7.01035567 C139.744441,6.09109107 143.549857,6.4600945 147.468114,6.39460653 L147.468114,30.0527955 L151.207891,30.0527955 L151.207891,33.0940326 Z" id="Fill-1" fill="#2A2C91"></path>
                        <g id="Group-5" transform="translate(91.569835, 0.184704)">
                            <mask id="mask-2" fill="white">
                                <use xlink:href="#path-1"></use>
                            </mask>
                            <g id="Clip-4"></g>
                            <path d="M12.660259,8.36534845 C7.48656332,9.1676268 3.16778956,13.5492385 3.87178331,20.7594034 C4.31970567,25.3453863 7.89457581,29.583046 12.660259,29.9796234 L12.660259,8.36534845 Z M16.0744768,30.0629533 C21.671379,29.4411216 25.7442108,24.6459017 25.2288266,18.1327883 C24.7622661,12.2358296 20.456458,8.64575052 16.0744768,8.41664399 L16.0744768,30.0629533 Z M12.6778842,5.32127285 L12.6778842,0.0179635739 L15.987769,0.0179635739 L15.987769,5.30505292 C20.0626267,5.70852371 23.3956066,7.4347299 25.9038502,10.5676096 C28.2246999,13.4665168 29.0818502,16.8862866 28.744541,20.5337436 C28.1535914,26.9254103 23.6559324,32.1462007 16.0414549,33.1500117 L16.0414549,39.0500117 L12.7329881,39.0500117 L12.7329881,33.141699 C9.13259188,32.5802866 6.06115324,31.1892247 3.66129424,28.5407127 C1.21200375,25.8378639 0.0738636323,22.5342694 0.188528514,18.9896062 C0.432242035,11.4505821 5.49714788,6.25939313 12.6778842,5.32127285 L12.6778842,5.32127285 Z" id="Fill-3" fill="#2A2C91" mask="url(#mask-2)"></path>
                        </g>
                        <g id="Group-8" transform="translate(31.806336, 6.469928)">
                            <mask id="mask-4" fill="white">
                                <use xlink:href="#path-3"></use>
                            </mask>
                            <g id="Clip-7"></g>
                            <path d="M3.50291084,23.5942216 C6.20746238,23.73939 8.82348291,23.8065 11.3394249,22.9774588 C13.7662281,22.1776134 15.672785,20.6987612 16.7108466,18.2665825 C17.6168207,16.1435962 17.909358,13.9768162 17.5989929,11.6563522 C17.1235186,8.10215979 15.3028591,5.57347251 12.1135141,4.10962371 C9.4004539,2.86433849 6.46799072,2.92394674 3.50291084,3.09506701 L3.50291084,23.5942216 Z M0.00927853637,0.109180412 C4.07096796,0.296723368 8.13103668,-0.389785223 12.0630697,0.790417526 C16.8627877,2.23135567 20.4682486,6.15799828 21.1191643,11.4951667 C21.4732884,14.3973179 21.0492714,17.084555 19.7731688,19.6286512 C17.7452616,23.6712663 14.2611509,25.742957 9.89760518,26.3299158 C7.81682249,26.6099124 5.69187559,26.5602388 3.46259581,26.6658711 C3.46259581,28.1923694 3.46867345,29.7338711 3.4609751,31.2753729 C3.45347934,32.8111976 3.40384525,32.8533694 1.88443427,32.8446512 C1.28396305,32.8412045 0.683694422,32.844043 0.00927853637,32.844043 L0.00927853637,0.109180412 Z" id="Fill-6" fill="#2A2C91" mask="url(#mask-4)"></path>
                        </g>
                        <path d="M83.0283344,19.2952708 C83.1565727,17.6647622 82.6748181,15.6399065 81.5370832,13.875178 C79.0095937,9.95400962 75.4023094,8.22678969 70.7140149,8.89484811 C67.1292179,9.40577595 64.4576883,11.2051746 62.8167244,14.4436866 C61.5185397,17.0056247 61.264089,19.7384804 61.872056,22.5145216 C62.3278793,24.5971608 63.319143,26.4764426 64.8784638,27.9386694 C66.4013188,29.3666316 68.2292715,30.3238103 70.3384165,30.6169856 C73.3446218,31.0350543 76.2009118,30.6601711 78.7053063,28.8088687 C81.7224513,26.5784254 83.056089,23.5116419 83.0283344,19.2952708 M58.082645,19.6717759 C58.0480024,11.6015491 64.3462648,6.10441168 71.4210475,5.81995464 C80.8178953,5.44203024 86.6700586,11.8233567 86.6342005,19.8197828 C86.5977347,27.9988859 80.6876311,33.7859546 72.2109386,33.7756144 C64.3213465,33.7660852 58.0234892,28.0708619 58.082645,19.6717759" id="Fill-9" fill="#2A2C91"></path>
                        <g id="Group-13" transform="translate(0.000000, 6.469928)">
                            <mask id="mask-6" fill="white">
                                <use xlink:href="#path-5"></use>
                            </mask>
                            <g id="Clip-12"></g>
                            <path d="M7.15148255,23.8268966 C9.54080696,23.6184704 11.837346,23.6176595 14.0467722,23.1778966 C17.2357119,22.543089 19.5972817,20.7053708 20.7313701,17.5138966 C21.4647391,15.4503158 21.5664384,13.3668656 21.2360171,11.2041405 C20.8500867,8.678089 19.6467133,6.6266732 17.6593237,5.15451168 C14.5344018,2.83992749 10.8724187,2.87824708 7.15148255,3.11080034 L7.15148255,23.8268966 Z M-8.10352522e-05,0.129374227 C3.78689888,0.129374227 7.49385649,0.119034021 11.2006115,0.132009966 C15.3660261,0.146607904 18.9856682,1.51131237 21.8403375,4.61641546 C23.7312951,6.67310275 24.6844723,9.18252887 24.9146124,11.931199 C25.2026927,15.3700271 24.4480519,18.5633261 22.3660537,21.3888381 C20.9110658,23.363412 18.9872889,24.6881749 16.7272157,25.5518863 C14.7756842,26.2975976 12.7429149,26.5832711 10.656865,26.5650237 C8.40530049,26.5455598 6.15353342,26.560766 3.81667934,26.560766 L3.81667934,3.07450825 L-8.10352522e-05,3.07450825 L-8.10352522e-05,0.129374227 Z" id="Fill-11" fill="#2A2C91" mask="url(#mask-6)"></path>
                        </g>
                    </g>
                </g>
            </g>
        </g>
    </g>
</svg>