<?xml version="1.0" encoding="UTF-8" standalone="no"?>
<svg width="19px" height="30px" viewBox="0 0 19 30" version="1.1" xmlns="http://www.w3.org/2000/svg" xmlns:xlink="http://www.w3.org/1999/xlink">
    <!-- Generator: Sketch 3.7.2 (28276) - http://www.bohemiancoding.com/sketch -->
    <title>Page 1</title>
    <desc>Created with Sketch.</desc>
    <defs>
        <polyline id="path-1" points="0 0.158947368 18.2310526 0.158947368 18.2310526 30 0 30"></polyline>
        <polyline id="path-3" points="0 0.158947368 18.2310526 0.158947368 18.2310526 30 0 30"></polyline>
    </defs>
    <g id="Главная-страница" stroke="none" stroke-width="1" fill="none" fill-rule="evenodd">
        <g id="1920_Index_neavtorizovan" transform="translate(-1504.000000, -6765.000000)">
            <g id="footer" transform="translate(-1.000000, 6582.000000)">
                <g id="money" transform="translate(1375.000000, 83.000000)">
                    <g id="Page-1" transform="translate(130.000000, 100.000000)">
                        <path d="M14.835,13.1755789 C14.8044737,13.0382105 14.6997368,12.7508421 14.5202632,12.6813684 C14.3444737,12.6161053 14.3286842,12.824 14.3728947,12.9587368 C14.4718421,13.2755789 14.605,13.5182105 14.7013158,13.5666316 C14.795,13.6229474 14.905,13.4929474 14.835,13.1755789" id="Fill-1" fill="#F39600"></path>
                        <path d="M13.4308421,13.5076316 C13.3518947,13.3907895 13.2450526,13.3092105 13.1297895,13.2681579 C13.1271579,13.2660526 13.1250526,13.2660526 13.1218947,13.2639474 C13.1161053,13.2639474 13.1124211,13.2618421 13.1092632,13.2607895 C13.1029474,13.2586842 13.0976842,13.2560526 13.0924211,13.2544737 C13.0892632,13.2544737 13.0845263,13.2544737 13.0829474,13.2528947 C13.074,13.2507895 13.0655789,13.2481579 13.0561053,13.245 C12.9445263,13.225 12.8345263,13.2418421 12.7418947,13.3013158 C12.5350526,13.4428947 12.5029474,13.7623684 12.6734737,14.0171053 C12.7524211,14.1323684 12.8592632,14.2128947 12.974,14.2565789 C12.9755789,14.2565789 12.9782105,14.2565789 12.9824211,14.2597368 C12.9855789,14.2602632 12.9913684,14.2628947 12.9945263,14.2634211 C13.0003158,14.2660526 13.0050526,14.2660526 13.0103158,14.2676316 C13.0150526,14.2676316 13.0171579,14.2692105 13.0208421,14.2707895 C13.0292632,14.2723684 13.0371579,14.2760526 13.0466316,14.2771053 C13.1566316,14.2992105 13.2676842,14.2828947 13.3603158,14.2207895 C13.5692632,14.0792105 13.6008421,13.7613158 13.4308421,13.5076316" id="Fill-3" fill="#F39600"></path>
                        <g id="Group-7">
                            <mask id="mask-2" fill="white">
                                <use xlink:href="#path-1"></use>
                            </mask>
                            <g id="Clip-6"></g>
                            <path d="M14.6304737,15.4584211 C14.9636316,15.5678947 15.3446842,15.71 15.6831053,15.9115789 C16.6588947,16.4926316 17.5588947,17.2510526 18.0662632,18.2831579 C18.2936316,18.7405263 18.2273158,18.8178947 18.2036316,18.83 C18.1146842,18.8752632 18.0820526,18.7805263 18.0820526,18.7805263 C17.9694211,18.5105263 17.7620526,18.2736842 17.7620526,18.2736842 C15.3646842,15.4421053 11.9204737,15.7431579 10.9141579,16.0594737 C8.25363158,16.9015789 3.61205263,15.9694737 1.63363158,12.9136842 C-0.775315789,9.19894737 0.453105263,4.12842105 4.37626316,1.58473684 C8.29731579,-0.957894737 13.431,-0.00894736842 15.8383684,3.70631579 C17.7283684,6.62052632 17.3757368,10.3736842 15.2394211,13.0831579 C15.1646842,12.6515789 14.9888947,12.2263158 14.7073158,11.8436842 C14.6831053,11.8078947 14.6578421,11.7742105 14.6336316,11.7410526 C14.5241579,11.6047368 14.4041579,11.4815789 14.2794211,11.3705263 C14.331,11.2384211 14.3788947,11.1052632 14.4204737,10.9673684 C14.9636316,9.18421053 14.6388947,6.99157895 13.3704737,5.10684211 C11.3504737,2.10315789 7.57678947,0.93 5.10152632,2.59368421 C2.62573684,4.25684211 1.971,8.02263158 3.82836842,11.1305263 C4.83731579,12.8189474 7.03942105,14.2115789 9.55152632,14.3247368 C9.27836842,13.5494737 9.41626316,12.9968421 9.41626316,12.9968421 C9.39626316,13.0794737 9.59468421,13.3210526 9.63415789,13.3826316 C9.84521053,13.6910526 10.0988947,13.9810526 10.4088947,14.1931579 C11.0036316,14.5973684 11.5583684,14.8863158 12.2604737,15.0063158 C13.1241579,15.1536842 13.8652105,15.2110526 14.6304737,15.4584211" id="Fill-5" fill="#F39600" mask="url(#mask-2)"></path>
                        </g>
                        <path d="M14.2794211,11.3707368 C14.2794211,11.3707368 13.4288947,10.5144211 12.3531053,10.6249474 C12.3531053,10.6249474 13.3441579,10.2217895 14.4241579,11.0196842" id="Fill-8" fill="#F39600"></path>
                        <g id="Group-12">
                            <mask id="mask-4" fill="white">
                                <use xlink:href="#path-3"></use>
                            </mask>
                            <g id="Clip-11"></g>
                            <path d="M3.55984211,22.1627895 C3.20247368,21.6064737 2.71510526,21.5596316 2.53457895,21.5596316 C2.15142105,21.5596316 1.74036842,21.767 1.46826316,22.1875263 C1.19089474,22.6338421 1.11878947,23.2680526 1.11878947,23.8001579 C1.11878947,24.2917368 1.18352632,24.9517368 1.46826316,25.437 C1.86668421,26.097 2.423,26.097 2.52615789,26.097 C2.91457895,26.097 3.34510526,25.8880526 3.63036842,25.3885789 C3.89984211,24.9033158 3.94826316,24.2354211 3.94036842,23.7685789 C3.94036842,23.387 3.893,22.6796316 3.55984211,22.1627895 M5.02036842,28.0191053 C5.21878947,28.0654211 5.33773684,28.0980526 5.33773684,28.2717368 C5.33773684,28.3591053 5.283,28.5033158 5.06036842,28.5033158 C4.90194737,28.5033158 2.81984211,28.2627895 2.16878947,26.7312105 C0.596157895,26.477 -0.000157894737,25.1512105 -0.000157894737,23.8622632 C-0.000157894737,21.8933158 1.15878947,20.8901579 2.54142105,20.8901579 C4.04247368,20.8901579 5.06036842,22.0848947 5.06036842,23.8001579 C5.06036842,24.7448947 4.71826316,26.1196316 3.29773684,26.6517368 C3.55984211,27.5480526 4.54457895,27.8906842 5.02036842,28.0191053" id="Fill-10" fill="#004B93" mask="url(#mask-4)"></path>
                        </g>
                        <path d="M7.60178947,26.4514737 C7.60178947,26.6046316 7.53126316,26.6262105 7.42810526,26.6262105 L6.68863158,26.6262105 C6.57810526,26.6188421 6.51547368,26.5972632 6.51547368,26.4514737 L6.51547368,21.1862105 C6.52231579,21.0751579 6.53705263,21.0198947 6.67968421,21.0198947 L7.43547368,21.0198947 C7.55494737,21.0198947 7.60178947,21.0446316 7.60178947,21.1862105 L7.60178947,26.4514737 Z" id="Fill-13" fill="#004B93"></path>
                        <path d="M12.2178421,23.0838421 L11.1536316,26.4701579 C11.1131053,26.5880526 11.0962632,26.6117368 11.0183684,26.6191053 C10.9952105,26.6259474 10.7804737,26.6259474 10.6625789,26.6259474 C10.5199474,26.6259474 10.4778421,26.6043684 10.4383684,26.477 L8.95257895,21.2654211 C8.92731579,21.1791053 8.92731579,21.1696316 8.92731579,21.1391053 C8.92731579,21.0443684 9.001,21.0196316 9.07994737,21.0196316 L9.82626316,21.0196316 C9.95994737,21.0196316 9.99310526,21.0259474 10.0331053,21.1933158 L10.9488947,24.817 L12.0594211,21.1791053 C12.0983684,21.0659474 12.1152105,21.0196316 12.2020526,21.0196316 L12.5046842,21.0196316 C12.5594211,21.0359474 12.5673158,21.0506842 12.6146842,21.2017368 L13.7431053,24.817 L14.6652105,21.1791053 C14.6962632,21.0506842 14.7373158,21.0196316 14.8478421,21.0196316 L15.3878421,21.0196316 C15.4757368,21.0196316 15.5462632,21.0196316 15.5462632,21.1222632 C15.5462632,21.1533158 15.5394211,21.1864737 15.5241579,21.2654211 L14.061,26.4701579 C14.021,26.5975263 13.9978421,26.6259474 13.8873158,26.6259474 L13.4957368,26.6259474 C13.4173158,26.6191053 13.3925789,26.5975263 13.3531053,26.477 L12.2178421,23.0838421 Z" id="Fill-15" fill="#004B93"></path>
                        <path d="M17.9692632,26.4514737 C17.9692632,26.6046316 17.8982105,26.6262105 17.7955789,26.6262105 L17.0555789,26.6262105 C16.9455789,26.6188421 16.8824211,26.5972632 16.8824211,26.4514737 L16.8824211,21.1862105 C16.8882105,21.0751579 16.9050526,21.0198947 17.0482105,21.0198947 L17.8034737,21.0198947 C17.9203158,21.0198947 17.9692632,21.0446316 17.9692632,21.1862105 L17.9692632,26.4514737 Z" id="Fill-17" fill="#004B93"></path>
                        <path d="M13.5233158,28.125 C13.5496316,28.085 13.5527895,28.085 13.5875263,28.085 L13.7433158,28.085 C13.7848947,28.085 13.7922632,28.0923684 13.7922632,28.1360526 L13.7922632,29.9197368 C13.7922632,29.9565789 13.7848947,29.9702632 13.7475263,29.9702632 C13.7012105,29.9702632 13.6143684,29.9702632 13.6080526,29.9681579 C13.5875263,29.9660526 13.5848947,29.9497368 13.5848947,29.9197368 L13.5848947,28.4539474 L12.5201579,29.9323684 C12.4938421,29.9607895 12.4859474,29.9681579 12.4596316,29.9702632 L12.3575263,29.9702632 C12.3233158,29.9702632 12.3127895,29.9681579 12.3127895,29.9218421 L12.3127895,28.1334211 C12.3127895,28.095 12.3191053,28.085 12.3527895,28.085 L12.4922632,28.085 C12.5133158,28.0913158 12.5201579,28.0992105 12.5201579,28.1360526 L12.5201579,29.5176316 L13.5233158,28.125 Z" id="Fill-19" fill="#004B93"></path>
                        <path d="M13.5331053,28.1311579 C13.5573158,28.0985263 13.5573158,28.0985263 13.5878421,28.0985263 L13.7431053,28.0985263 C13.7767895,28.0985263 13.7799474,28.0990526 13.7799474,28.1364211 L13.7799474,29.9195789 C13.7799474,29.9527368 13.7746842,29.958 13.7473158,29.958 L13.611,29.9548421 C13.6020526,29.9537895 13.5962632,29.9537895 13.5962632,29.9195789 L13.5962632,28.4137895 L12.5073158,29.9258947 C12.4841579,29.9537895 12.4794211,29.9548421 12.4583684,29.958 L12.3578421,29.958 C12.3278421,29.958 12.3262632,29.958 12.3262632,29.9216842 L12.3262632,28.1332632 C12.3262632,28.0985263 12.3278421,28.0985263 12.3531053,28.0985263 L12.4920526,28.0985263 C12.4999474,28.0990526 12.5067895,28.0990526 12.5067895,28.1364211 L12.5067895,29.5558947 L13.5331053,28.1311579 Z M13.5878421,28.0716842 C13.5462632,28.0716842 13.541,28.0748421 13.5131053,28.118 C13.5131053,28.118 12.5752105,29.4158947 12.5320526,29.478 L12.5320526,28.1364211 C12.5320526,28.0990526 12.5246842,28.0785263 12.4952105,28.0716842 L12.3531053,28.0716842 C12.3078421,28.0716842 12.2999474,28.0911579 12.2999474,28.1332632 L12.2999474,29.9216842 C12.2999474,29.9774737 12.3188947,29.9837895 12.3578421,29.9837895 L12.4599474,29.9837895 C12.4925789,29.9795789 12.5031053,29.9711579 12.5288947,29.9406316 C12.5288947,29.9406316 13.4220526,28.6985263 13.5725789,28.4927368 L13.5725789,29.9195789 C13.5725789,29.9432632 13.5725789,29.9774737 13.6067895,29.9795789 C13.6083684,29.9806316 13.6157368,29.9837895 13.7473158,29.9837895 C13.7946842,29.9837895 13.8041579,29.958 13.8041579,29.9195789 L13.8041579,28.1364211 C13.8041579,28.0869474 13.7904737,28.0716842 13.7431053,28.0716842 L13.5878421,28.0716842 Z" id="Fill-21" fill="#004B93"></path>
                        <path d="M8.53873684,29.9300526 C8.51189474,29.9700526 8.50926316,29.9700526 8.474,29.9700526 L8.32084211,29.9700526 C8.27663158,29.9700526 8.26926316,29.9611053 8.26926316,29.9195263 L8.26926316,28.1363684 C8.26926316,28.0984737 8.27663158,28.0847895 8.314,28.0847895 C8.36084211,28.0847895 8.44715789,28.0847895 8.45505263,28.0879474 C8.474,28.0911053 8.47715789,28.1063684 8.47715789,28.1363684 L8.47715789,29.6032105 L9.54294737,28.1216316 C9.56768421,28.0921579 9.57505263,28.0879474 9.60136842,28.0847895 L9.70294737,28.0847895 C9.73821053,28.0847895 9.74873684,28.0879474 9.74873684,28.1332105 L9.74873684,29.9216316 C9.74873684,29.9579474 9.74242105,29.9700526 9.70768421,29.9700526 L9.56926316,29.9700526 C9.54978947,29.9658421 9.54294737,29.9537368 9.54294737,29.9195263 L9.54294737,28.539 L8.53873684,29.9300526 Z" id="Fill-23" fill="#004B93"></path>
                        <path d="M9.55436842,28.1291053 C9.57489474,28.1022632 9.58121053,28.0991053 9.60278947,28.0980526 L9.70278947,28.0980526 C9.73384211,28.0980526 9.737,28.0980526 9.737,28.1333158 L9.737,29.9217368 C9.737,29.957 9.73384211,29.9580526 9.70752632,29.9580526 L9.56910526,29.9580526 C9.56173684,29.9548947 9.55489474,29.9538421 9.55489474,29.9196316 L9.55489474,28.5001579 L8.52857895,29.9217368 C8.50594737,29.9580526 8.50594737,29.9580526 8.47384211,29.9580526 L8.32068421,29.9580526 C8.28542105,29.9580526 8.28121053,29.9548947 8.28121053,29.9196316 L8.28121053,28.1364737 C8.28121053,28.1022632 8.287,28.0980526 8.31436842,28.0980526 L8.44857895,28.0991053 C8.46068421,28.0991053 8.46384211,28.1022632 8.46384211,28.1364737 L8.46384211,29.6412105 L9.55436842,28.1291053 Z M9.60121053,28.0717368 C9.56910526,28.0764737 9.55857895,28.0838421 9.53384211,28.1127895 C9.53226316,28.1159474 8.63963158,29.3564737 8.49015789,29.5622632 L8.49015789,28.1364737 C8.49015789,28.1127895 8.49015789,28.0785789 8.45647368,28.0743684 C8.45489474,28.0738421 8.44594737,28.0717368 8.31436842,28.0717368 C8.26489474,28.0717368 8.25752632,28.0954211 8.25752632,28.1364737 L8.25752632,29.9196316 C8.25752632,29.9701579 8.27068421,29.9833158 8.32068421,29.9833158 L8.47384211,29.9833158 C8.51489474,29.9833158 8.52068421,29.9806842 8.54910526,29.9375263 C8.54910526,29.9375263 9.48805263,28.6401579 9.53121053,28.5785789 L9.53121053,29.9196316 C9.53121053,29.9548947 9.53647368,29.9775263 9.56752632,29.9817368 L9.70752632,29.9833158 C9.75542105,29.9833158 9.76226316,29.9627895 9.76226316,29.9217368 L9.76226316,28.1333158 C9.76226316,28.0785789 9.74226316,28.0717368 9.70278947,28.0717368 L9.60121053,28.0717368 Z" id="Fill-25" fill="#004B93"></path>
                        <path d="M10.7175263,29.8159474 C10.767,29.8201579 10.8417368,29.8280526 10.9375263,29.8280526 C11.2227895,29.8280526 11.4427895,29.7264737 11.4427895,29.4612105 C11.4427895,29.3243684 11.3854211,29.2380526 11.3454211,29.1959474 C11.2227895,29.0575263 11.0375263,29.0480526 10.8891053,29.0480526 C10.817,29.0480526 10.7801579,29.0512105 10.7175263,29.0554211 L10.7175263,29.8159474 Z M10.7175263,28.9122632 C10.7980526,28.9143684 10.8627895,28.9143684 10.9401579,28.9091053 C11.2838421,28.8827895 11.327,28.6617368 11.327,28.5680526 C11.327,28.2248947 10.9906842,28.2248947 10.9048947,28.2248947 C10.8338421,28.2248947 10.7717368,28.2285789 10.7175263,28.2359474 L10.7175263,28.9122632 Z M10.4564737,28.1775263 C10.4564737,28.1291053 10.4638421,28.1127895 10.4985789,28.1022632 C10.5612105,28.0817368 10.7833158,28.0685789 10.9048947,28.0685789 C11.0580526,28.0685789 11.2606842,28.0848947 11.4048947,28.1722632 C11.5396316,28.2585789 11.597,28.3859474 11.597,28.5206842 C11.597,28.7417368 11.4338421,28.8712105 11.3064737,28.9338421 C11.287,28.9443684 11.2664737,28.9533158 11.2443684,28.9606842 C11.2664737,28.9659474 11.2838421,28.9691053 11.3064737,28.9738421 C11.5812105,29.0406842 11.7196316,29.2333158 11.7196316,29.4717368 C11.7196316,29.9864737 11.0933158,29.9864737 10.8933158,29.9864737 C10.7112105,29.9864737 10.5438421,29.9680526 10.4985789,29.9506842 C10.4622632,29.9401579 10.4564737,29.927 10.4564737,29.8643684 L10.4564737,28.1775263 Z" id="Fill-27" fill="#004B93"></path>
                        <path d="M10.5042105,29.9403684 C10.4763158,29.9319474 10.4689474,29.9272105 10.4689474,29.8640526 L10.4689474,28.1772105 C10.4689474,28.133 10.4763158,28.123 10.5042105,28.1156316 C10.5615789,28.0951053 10.7847368,28.0819474 10.9052632,28.0819474 C11.1210526,28.0819474 11.2868421,28.1156316 11.3984211,28.1845789 C11.5178947,28.2619474 11.5852632,28.3787895 11.5852632,28.5208947 C11.5852632,28.7603684 11.3852632,28.8824737 11.3005263,28.9224737 C11.2989474,28.9224737 11.2047368,28.9640526 11.2047368,28.9640526 L11.2415789,28.973 L11.3036842,28.9866842 C11.56,29.0482632 11.7068421,29.2261579 11.7068421,29.4714211 C11.7068421,29.973 11.0957895,29.973 10.8931579,29.973 C10.7215789,29.973 10.5494737,29.9566842 10.5042105,29.9403684 M10.4936842,28.0908947 C10.45,28.1045789 10.4447368,28.1293158 10.4447368,28.1772105 L10.4447368,29.8640526 C10.4447368,29.9272105 10.4484211,29.9498421 10.4952632,29.963 C10.5436842,29.9803684 10.7142105,29.9998421 10.8931579,29.9998421 C11.1031579,29.9998421 11.7315789,29.9998421 11.7315789,29.4714211 C11.7315789,29.2124737 11.5773684,29.0277368 11.3084211,28.9608947 C11.3084211,28.9608947 11.2947368,28.9587895 11.2842105,28.9566842 C11.2973684,28.9503684 11.3115789,28.9451053 11.3115789,28.9451053 C11.4010526,28.9008947 11.6110526,28.7756316 11.6110526,28.5208947 C11.6110526,28.3698421 11.5394737,28.2451053 11.4121053,28.163 C11.2963158,28.0908947 11.1257895,28.0561579 10.9052632,28.0561579 C10.78,28.0561579 10.5578947,28.0703684 10.4936842,28.0908947" id="Fill-29" fill="#004B93"></path>
                        <path d="M10.9051053,28.236 C11.1756316,28.236 11.3135263,28.3491579 11.3135263,28.5681053 C11.3135263,28.6402105 11.2887895,28.8702105 10.9387895,28.8970526 C10.9387895,28.8970526 10.7614211,28.9002105 10.7293158,28.9002105 L10.7293158,28.2481053 C10.7477368,28.246 10.9051053,28.236 10.9051053,28.236 L10.9051053,28.236 Z M10.7024737,28.2249474 L10.7040526,28.236 L10.7040526,28.9254737 L10.9403684,28.9228421 C11.3108947,28.8938947 11.3398421,28.6438947 11.3398421,28.5681053 C11.3398421,28.4054737 11.2651053,28.2112632 10.9051053,28.2112632 L10.7024737,28.2249474 Z" id="Fill-31" fill="#004B93"></path>
                        <path d="M10.7565789,29.0655789 L10.8892105,29.0613684 C11.0444737,29.0613684 11.2197368,29.0718947 11.3376316,29.2034737 C11.3707895,29.2413684 11.4292105,29.3245263 11.4292105,29.4613684 C11.4292105,29.7708421 11.1207895,29.8161053 10.9376316,29.8161053 C10.9376316,29.8161053 10.7413158,29.8045263 10.7292105,29.8045263 L10.7292105,29.0666316 C10.7407895,29.0666316 10.7565789,29.0655789 10.7565789,29.0655789 L10.7565789,29.0655789 Z M10.755,29.0397895 L10.7039474,29.0429474 L10.7039474,29.8261053 L10.9376316,29.8418947 C11.2723684,29.8418947 11.4544737,29.7082105 11.4544737,29.4613684 C11.4544737,29.3155789 11.3913158,29.2261053 11.3560526,29.1876842 C11.2328947,29.0482105 11.0497368,29.0366316 10.8892105,29.0366316 L10.755,29.0397895 Z" id="Fill-33" fill="#004B93"></path>
                        <path d="M7.04615789,28.9175263 L7.76931579,29.9043684 C7.77773684,29.9148947 7.78457895,29.9238421 7.78457895,29.9401579 C7.78457895,29.9659474 7.76931579,29.9701579 7.75194737,29.9701579 L7.53931579,29.9701579 C7.493,29.9701579 7.48668421,29.9701579 7.45721053,29.9322632 L6.77931579,28.9791053 L6.77931579,29.9301579 C6.77931579,29.9680526 6.76036842,29.9701579 6.72826316,29.9701579 L6.57615789,29.9701579 C6.53563158,29.9701579 6.52247368,29.9659474 6.52247368,29.9175263 L6.52247368,28.1385789 C6.52247368,28.0922632 6.53247368,28.0848947 6.57405263,28.0848947 L6.72826316,28.0848947 C6.773,28.0817368 6.77931579,28.0922632 6.77931579,28.1364737 L6.77931579,28.9296316 L7.41247368,28.1385789 C7.443,28.0980526 7.45194737,28.0912105 7.47773684,28.0848947 L7.62563158,28.0848947 C7.64721053,28.0848947 7.66510526,28.0922632 7.66510526,28.1127895 C7.66510526,28.1291053 7.65773684,28.1385789 7.63878947,28.1648947 L7.04615789,28.9175263 Z" id="Fill-35" fill="#004B93"></path>
                        <path d="M7.42236842,28.1465789 C7.44921053,28.1065789 7.45868421,28.1023684 7.48078947,28.0960526 L7.62552632,28.0981579 C7.63868421,28.0981579 7.65342105,28.0992105 7.65342105,28.1128947 L7.63657895,28.1465789 L7.62868421,28.1560526 L7.02921053,28.9176316 L7.75921053,29.9118421 L7.77236842,29.9402632 C7.77236842,29.9497368 7.77078947,29.9576316 7.75184211,29.9576316 L7.53973684,29.9576316 C7.49289474,29.9576316 7.49289474,29.9576316 7.46815789,29.9260526 C7.46815789,29.9260526 6.78184211,28.9628947 6.77552632,28.9534211 C6.78184211,28.9455263 7.42236842,28.1465789 7.42236842,28.1465789 L7.42236842,28.1465789 Z M6.53605263,29.9176316 L6.53605263,28.1381579 C6.53605263,28.0992105 6.54026316,28.0981579 6.57394737,28.0981579 L6.72815789,28.0981579 L6.76131579,28.0992105 L6.765,28.1360526 L6.765,29.9302632 C6.765,29.955 6.76026316,29.9576316 6.72815789,29.9576316 L6.57657895,29.9576316 C6.54184211,29.9576316 6.53605263,29.9565789 6.53605263,29.9176316 L6.53605263,29.9176316 Z M7.47763158,28.0713158 C7.44552632,28.0786842 7.43131579,28.0902632 7.40184211,28.1313158 C7.40184211,28.1313158 6.89815789,28.7602632 6.79236842,28.8939474 L6.79236842,28.1360526 L6.77815789,28.0818421 L6.72815789,28.0713158 L6.57394737,28.0713158 C6.52394737,28.0713158 6.50921053,28.0881579 6.50921053,28.1381579 L6.50921053,29.9176316 C6.50921053,29.9734211 6.53026316,29.9834211 6.57657895,29.9834211 L6.72815789,29.9834211 C6.755,29.9834211 6.79236842,29.9834211 6.79236842,29.9302632 L6.79236842,29.0181579 C6.83394737,29.0797368 7.44710526,29.9402632 7.44710526,29.9402632 C7.47921053,29.9813158 7.48868421,29.9834211 7.53973684,29.9834211 L7.75184211,29.9834211 C7.79236842,29.9834211 7.79868421,29.9565789 7.79868421,29.9402632 L7.78078947,29.895 C7.78078947,29.895 7.11973684,28.9965789 7.06236842,28.9176316 C7.07342105,28.9028947 7.64868421,28.1723684 7.64868421,28.1723684 L7.65605263,28.1607895 L7.67815789,28.1128947 C7.67815789,28.0881579 7.65763158,28.0713158 7.62552632,28.0713158 L7.47763158,28.0713158 Z" id="Fill-37" fill="#004B93"></path>
                    </g>
                </g>
            </g>
        </g>
    </g>
</svg>