<?xml version="1.0" encoding="UTF-8" standalone="no"?>
<svg width="97px" height="22px" viewBox="0 0 97 22" version="1.1" xmlns="http://www.w3.org/2000/svg" xmlns:xlink="http://www.w3.org/1999/xlink">
    <!-- Generator: Sketch 3.7.2 (28276) - http://www.bohemiancoding.com/sketch -->
    <title>RT_logo</title>
    <desc>Created with Sketch.</desc>
    <defs></defs>
    <g id="Главная-страница" stroke="none" stroke-width="1" fill="none" fill-rule="evenodd">
        <g id="1920_Index_neavtorizovan" transform="translate(-1375.000000, -6770.000000)">
            <g id="footer" transform="translate(-1.000000, 6582.000000)">
                <g id="money" transform="translate(1375.000000, 83.000000)">
                    <g id="RT_logo" transform="translate(1.000000, 105.000000)">
                        <path d="M4.07453968,10.1070794 C5.72593651,12.5441905 7.74853968,13.5272063 9.53333333,15.4499365 C11.231873,17.2186667 11.5314921,19.7113016 10.1821587,21.0854286 C8.79860317,22.4944762 6.21238095,22.1990476 4.40593651,20.4247302 C4.30815873,20.3290476 3.99701587,19.9871746 3.95546032,19.9375873 C1.07834921,16.5247937 -2.73812698,5.47590476 4.30850794,1.17961905 L4.30850794,1.17926984 C4.71184127,0.922253968 5.1368254,0.708888889 5.57438095,0.542666667 C4.59904762,0.928190476 3.84266667,1.51520635 3.50253968,2.09593651 C2.8928254,2.96685714 2.52231746,4.11504762 2.52231746,5.37463492 L2.52231746,5.3847619 C2.52231746,5.49546032 2.52580952,5.60371429 2.53069841,5.71092063 C2.60088889,7.22892063 3.14774603,8.80698413 4.07453968,10.1070794 L4.07453968,10.1070794 Z M7.61234921,0.134793651 C7.50409524,0.137587302 7.39444444,0.144571429 7.28584127,0.153301587 C7.86901587,0.122222222 8.37396825,0.211968254 8.71688889,0.416253968 C8.778,0.451174603 8.83771429,0.487142857 8.89603175,0.527650794 C9.17714286,0.721809524 9.40238095,0.974634921 9.57174603,1.27111111 C9.84377778,1.71774603 9.97892063,2.2712381 9.97892063,2.87780952 L9.97892063,2.92180952 L9.97892063,2.92320635 C9.97019048,4.15311111 9.41355556,5.59777778 8.3432381,6.80393651 C8.316,6.83431746 8.28631746,6.86644444 8.25907937,6.8971746 C8.25907937,6.8971746 8.25873016,6.89752381 8.25803175,6.89822222 C8.1672381,7.00263492 8.08168254,7.11193651 8.00101587,7.22892063 C6.9408254,8.75250794 7.17130159,10.7447302 8.514,11.6785079 C9.85739683,12.6126349 11.8052698,12.1335238 12.8654603,10.6078413 C12.9178413,10.5324127 12.968127,10.4545397 13.0145714,10.3766667 C16.0540635,5.60965079 12.5193968,-0.0736825397 7.61234921,0.134793651 L7.61234921,0.134793651 Z" id="Fill-20" fill="#00A0D3"></path>
                        <path d="M5.02752381,8.66904762 C5.17733333,6.13765079 6.81301587,4.1744127 8.68092063,4.28511111 C9.0255873,4.3064127 9.37025397,4.41187302 9.67755556,4.56238095 C9.87415873,4.00015873 9.97542857,3.44247619 9.97857143,2.92285714 L9.97857143,2.87746032 C9.97857143,2.27088889 9.84412698,1.71739683 9.57174603,1.27111111 L9.57174603,1.2707619 C9.40168254,0.974634921 9.17714286,0.721809524 8.89603175,0.528 C8.83771429,0.487142857 8.778,0.450825397 8.71688889,0.416253968 C8.08761905,0.0436507937 6.91603175,0.0485396825 5.71092063,0.490984127 C4.6692381,0.873714286 3.85768254,1.48936508 3.50288889,2.09593651 C2.8931746,2.96650794 2.52231746,4.11504762 2.52231746,5.37498413 C2.52231746,5.4835873 2.52580952,5.5935873 2.53104762,5.70114286 C2.60088889,7.22053968 3.14774603,8.80069841 4.07488889,10.1028889 C4.82463492,11.2119683 5.65155556,12.0200317 6.49838095,12.7533651 C5.52549206,11.9026984 4.92660317,10.3745714 5.02752381,8.66904762" id="Fill-21" fill="#E5722A"></path>
                        <path d="M68.3382857,9.97368254 C69.012254,9.97368254 69.8039048,10.3983175 69.7780635,11.4927302 L66.9166667,11.4927302 C66.9299365,10.6364762 67.5337143,9.97368254 68.3382857,9.97368254 L68.3382857,9.97368254 Z M70.8766667,13.9762857 C70.8766667,13.9762857 69.9366032,14.0583492 69.2329524,14.0583492 C67.9911746,14.0583492 66.9669524,13.4870476 66.9166667,12.6576825 L70.7932063,12.6576825 C71.2230794,12.6576825 71.5810159,12.3259365 71.5848571,11.9205079 C71.5342222,10.9615873 71.1790794,8.78952381 68.4451429,8.78952381 C66.5782857,8.78952381 65.008254,10.0491111 65.008254,12.1433016 C65.008254,14.4396825 67.0724127,15.3937143 69.1648571,15.3937143 C69.9771111,15.3937143 70.8766667,15.3099048 70.8766667,15.3099048 C70.9548889,15.3099048 71.0212381,15.2519365 71.0226349,15.18 L71.0226349,14.100254 C71.0153016,14.0293651 70.9548889,13.9762857 70.8766667,13.9762857 L70.8766667,13.9762857 Z M52.8890476,9.97403175 C53.5602222,9.97403175 54.3560635,10.3983175 54.328127,11.492381 L51.4646349,11.492381 C51.4793016,10.6364762 52.082381,9.97403175 52.8890476,9.97403175 L52.8890476,9.97403175 Z M55.2880952,14.1236508 L53.7865079,14.1236508 C52.5426349,14.1236508 51.5194603,13.4870476 51.4646349,12.6576825 L55.3327937,12.6576825 C55.7647619,12.6576825 56.1230476,12.3241905 56.1230476,11.9208571 L56.1230476,11.7720952 C56.044127,10.7531111 55.5946984,8.7891746 52.9969524,8.7891746 C51.129746,8.7891746 49.555873,10.0491111 49.555873,12.1436508 C49.555873,14.4400317 51.6319048,15.3937143 53.715619,15.3937143 L55.2880952,15.3937143 C55.363873,15.3937143 55.4323175,15.3353968 55.4340635,15.2634603 L55.4340635,14.2451746 C55.426381,14.1784762 55.363873,14.1236508 55.2880952,14.1236508 L55.2880952,14.1236508 Z M83.0898095,14.2640317 C83.8971746,14.2640317 84.7673968,13.6480317 84.7673968,12.1433016 C84.7673968,10.6364762 83.8971746,10.021873 83.0898095,10.021873 C82.2810476,10.021873 81.4108254,10.6364762 81.4108254,12.1433016 C81.4108254,13.6480317 82.2810476,14.2640317 83.0898095,14.2640317 L83.0898095,14.2640317 Z M83.0898095,8.78952381 C85.1595556,8.78952381 86.6789524,9.97368254 86.6789524,12.1433016 C86.6789524,14.3139683 85.1595556,15.4956825 83.0898095,15.4956825 C81.0190159,15.4956825 79.5027619,14.3139683 79.5027619,12.1433016 C79.5027619,9.97368254 81.0186667,8.78952381 83.0898095,8.78952381 L83.0898095,8.78952381 Z M96.7179365,10.0924127 L96.7179365,9.636 C96.7179365,9.23161905 96.3606984,8.89638095 95.9287302,8.89638095 L94.4858095,8.89638095 C94.4173651,8.90755556 94.3534603,8.93339683 94.2944444,9.01650794 L92.2707937,11.9624127 L90.2663492,9.01860317 L90.2663492,9.01650794 C90.1776508,8.89288889 90.0767302,8.89288889 89.9733651,8.89288889 L88.6275238,8.89288889 C88.1927619,8.89288889 87.8369206,9.22673016 87.8369206,9.63250794 L87.8369206,15.2634603 C87.8397143,15.3353968 87.9039683,15.3937143 87.9828889,15.3937143 L89.5173016,15.3937143 C89.5955238,15.3937143 89.6629206,15.3326032 89.6629206,15.256127 L89.6653651,11.6914286 L89.6252063,10.3672381 L89.692254,10.3672381 L92.0518413,13.8945714 C92.1758095,14.0702222 92.3958095,14.066381 92.5103492,13.8924762 L94.8660952,10.3672381 L94.9348889,10.3672381 L94.894381,11.6914286 L94.894381,15.256127 C94.894381,15.3326032 94.9582857,15.3937143 95.0396508,15.3937143 L96.5758095,15.3937143 C96.6547302,15.3937143 96.7175873,15.3326032 96.7175873,15.256127 L96.7179365,10.0924127 L96.7179365,10.0924127 Z M63.5482222,8.89288889 L58.8761905,8.89288889 C58.4410794,8.89288889 58.0845397,9.22673016 58.0845397,9.63285714 L58.0845397,12.1254921 C58.0845397,13.3983492 57.5596825,14.1208571 56.6520952,14.1208571 L56.6035556,14.1208571 C56.526381,14.1236508 56.4635238,14.1784762 56.4610794,14.2493651 L56.4610794,15.2557778 C56.4610794,15.3287619 56.5204444,15.3856825 56.595873,15.3930159 C56.6877143,15.3930159 56.8246032,15.3902222 56.9943175,15.3902222 C57.9500952,15.3902222 59.7142857,14.9435873 59.7142857,12.1254921 L59.7142857,10.1482857 L61.8626032,10.1482857 L61.8626032,15.2557778 C61.8626032,15.332254 61.9275556,15.3937143 62.0064762,15.3937143 L63.5433333,15.3937143 C63.6233016,15.3937143 63.688254,15.332254 63.688254,15.2557778 L63.688254,9.02942857 C63.688254,8.95539683 63.6271429,8.89638095 63.5482222,8.89288889 L63.5482222,8.89288889 Z M24.0330794,10.7126032 L23.1590159,10.7126032 L23.1590159,7.98879365 L24.0330794,7.98879365 C25.1327302,7.98879365 25.6310476,8.57930159 25.6310476,9.30704762 C25.6310476,9.97368254 25.1861587,10.7126032 24.0330794,10.7126032 L24.0330794,10.7126032 Z M24.0330794,6.60942857 L21.9161905,6.60942857 C21.5680317,6.66006349 21.2918095,6.92301587 21.2509524,7.25057143 L21.2509524,15.256127 C21.2509524,15.332254 21.3138095,15.3937143 21.394127,15.3937143 L23.012,15.3937143 C23.0933651,15.3937143 23.1590159,15.332254 23.1590159,15.256127 L23.1590159,12.0926667 L24.3801905,12.0926667 C26.7886667,12.0926667 27.6470159,10.5132063 27.6470159,9.35873016 C27.6470159,8.80453968 27.4448254,6.60942857 24.0330794,6.60942857 L24.0330794,6.60942857 Z M79.5093968,15.2526349 L76.681873,11.966254 L78.8850159,9.34580952 L78.8815238,9.34580952 C78.8815238,9.34580952 78.9353016,9.28295238 78.9978095,9.20892063 L79.1570476,9.02139683 C79.2027937,8.95539683 79.1682222,8.89288889 79.0693968,8.89288889 L77.3673651,8.89288889 C77.2846032,8.89288889 77.2144127,8.91977778 77.1602857,8.97250794 L74.9906667,11.8426349 L74.9229206,11.8426349 L74.9229206,9.02942857 C74.9229206,8.95539683 74.8635556,8.89638095 74.786381,8.89288889 L73.2432381,8.89288889 C73.1622222,8.89288889 73.0944762,8.95539683 73.0944762,9.02942857 L73.0944762,15.256127 C73.0944762,15.332254 73.1608254,15.3937143 73.2432381,15.3937143 L74.7776508,15.3937143 C74.8565714,15.3937143 74.9229206,15.332254 74.9229206,15.256127 L74.9229206,12.2808889 L74.9906667,12.2808889 L77.250381,15.2875556 C77.3055556,15.364381 77.3813333,15.3937143 77.4780635,15.3937143 L79.4255873,15.3937143 C79.5334921,15.3937143 79.5652698,15.3231746 79.5093968,15.2526349 L79.5093968,15.2526349 Z M41.8391111,15.3930159 C41.9190794,15.3930159 41.9864762,15.3315556 41.9864762,15.256127 L41.9773968,14.2710159 C41.9773968,14.1962857 41.9131429,14.1344762 41.8342222,14.1344762 C41.7902222,14.1344762 40.6776508,14.1316825 40.4401905,14.1316825 C39.1624444,14.1316825 38.2995556,13.3494603 38.2995556,12.1670476 C38.2995556,10.8648571 39.2403175,10.1482857 40.4646349,10.1482857 L41.7196825,10.1482857 C41.7965079,10.1482857 41.8614603,10.0903175 41.8680952,10.0204762 L41.8680952,9.02977778 C41.8680952,8.95539683 41.8010476,8.89288889 41.7193333,8.89288889 L40.1569841,8.89288889 C37.6800635,8.89288889 36.3911429,10.3476825 36.3911429,12.0814921 C36.3911429,13.8002857 37.6367619,15.3930159 40.1234603,15.3930159 L41.8391111,15.3930159 L41.8391111,15.3930159 Z M48.8626984,8.89288889 L42.974381,8.89288889 C42.8930159,8.89288889 42.8263175,8.95539683 42.8263175,9.02942857 L42.8263175,10.011746 C42.8263175,10.0868254 42.8930159,10.1482857 42.974381,10.1482857 L45.001873,10.1482857 L45.001873,15.2557778 C45.001873,15.332254 45.0682222,15.3937143 45.1534286,15.3937143 L46.6850476,15.3937143 C46.7678095,15.3937143 46.8324127,15.332254 46.8324127,15.2557778 L46.8324127,10.1482857 L48.8626984,10.1482857 C48.9430159,10.1482857 49.0097143,10.0868254 49.0097143,10.011746 L49.0097143,9.02942857 C49.0097143,8.95539683 48.9430159,8.89288889 48.8626984,8.89288889 L48.8626984,8.89288889 Z M31.7334286,14.2640317 C32.5369524,14.2640317 33.4106667,13.6480317 33.4106667,12.1433016 C33.4106667,10.6364762 32.5369524,10.021873 31.7334286,10.021873 C30.9229206,10.021873 30.0526984,10.6364762 30.0526984,12.1433016 C30.0526984,13.6480317 30.9229206,14.2640317 31.7334286,14.2640317 L31.7334286,14.2640317 Z M31.7334286,8.78952381 C33.7996825,8.78952381 35.3194286,9.97368254 35.3194286,12.1433016 C35.3194286,14.3139683 33.7996825,15.4956825 31.7334286,15.4956825 C29.6605397,15.4956825 28.1428889,14.3139683 28.1428889,12.1433016 C28.1428889,9.97368254 29.6605397,8.78952381 31.7334286,8.78952381 L31.7334286,8.78952381 Z" id="Fill-22" fill="#1A1918"></path>
                    </g>
                </g>
            </g>
        </g>
    </g>
</svg>