<?xml version="1.0" encoding="UTF-8" standalone="no"?>
<svg width="48px" height="16px" viewBox="0 0 48 16" version="1.1" xmlns="http://www.w3.org/2000/svg" xmlns:xlink="http://www.w3.org/1999/xlink">
    <!-- Generator: Sketch 3.7.2 (28276) - http://www.bohemiancoding.com/sketch -->
    <title>visa</title>
    <desc>Created with Sketch.</desc>
    <defs>
        <polyline id="path-1" points="0 0 48.8083709 0 48.8083709 16 0 16"></polyline>
    </defs>
    <g id="Главная-страница" stroke="none" stroke-width="1" fill="none" fill-rule="evenodd">
        <g id="1920_Index_neavtorizovan" transform="translate(-1375.000000, -6667.000000)">
            <g id="visa" transform="translate(1374.000000, 6667.000000)">
                <path d="M33.3178808,0 C33.8178013,0.220397351 34.3690066,0.16402649 34.8883179,0.29202649 C35.4178013,0.422569536 36.0997616,0.398304636 36.4217748,0.76386755 C36.7628609,1.1509404 36.3589404,1.77578808 36.2992848,2.29817219 C36.2473642,2.75242384 36.125404,3.19915232 36.0845033,3.65372185 C36.0522914,4.01091391 35.9303311,3.98463576 35.6566358,3.87443709 C34.4767682,3.39878146 33.253457,3.20307285 31.9829934,3.38362914 C31.9656159,3.38606623 31.9478146,3.38627815 31.9304371,3.38882119 C31.109245,3.5055894 30.5420397,3.88566887 30.4629934,4.40116556 C30.3486623,5.14659603 30.9020927,5.47083444 31.4089007,5.7832053 C32.1578278,6.24466225 32.9483974,6.63872848 33.6953113,7.10315232 C34.7042649,7.73022517 35.551947,8.51274172 35.8618808,9.72301987 C36.3061722,11.4584371 35.6058808,13.2823311 34.0567417,14.413245 C32.7804503,15.3450596 31.3177748,15.7474967 29.7671523,15.8924503 C29.6418013,15.9042119 29.4771391,15.818596 29.397351,16 L28.7615894,16 C28.151894,15.7717616 27.4955762,15.8377748 26.8695629,15.6972715 C26.2501192,15.5582517 25.6355497,15.4124503 25.0396291,15.1909934 C24.8466755,15.1192583 24.6808477,15.0591788 24.7287417,14.7918411 C24.9140662,13.7565033 25.0886887,12.7192583 25.2711523,11.6599735 C26.7857483,12.5214305 28.365404,12.8223576 30.0439205,12.616053 C30.4858808,12.5618013 30.9087682,12.4450331 31.2823841,12.1938013 C31.914649,11.7686887 32.0227285,11.0448742 31.5420927,10.4547815 C31.2117086,10.0490596 30.7636026,9.79708609 30.3166623,9.54818543 C29.6089536,9.15390728 28.885457,8.79003974 28.202543,8.34977483 C25.3045298,6.48127152 26.1977748,3.01849007 27.9453775,1.68381457 C29.226755,0.705271523 30.6972715,0.301245033 32.2577483,0.114013245 C32.4006887,0.0968476821 32.5826225,0.189562914 32.6821192,0 L33.3178808,0 Z" id="Fill-1" fill="#1357B0"></path>
                <path d="M5.33000265,2.51761589 C3.98367152,1.68921854 2.57567152,1.01107285 1.00004238,0.741721854 L1.00004238,0.42384106 C3.13153907,0.423735099 5.26314172,0.420768212 7.39474437,0.424688742 C8.61763179,0.426913907 9.21111523,0.911364238 9.44931391,2.09960265 C9.80544636,3.87592053 10.155645,5.65340397 10.5055258,7.43099338 C10.5392212,7.60211921 10.5860556,7.77589404 10.5252344,7.95210596 C10.3297377,7.8575894 10.3020821,7.64810596 10.211698,7.48439735 C9.0466649,5.37388079 7.43691656,3.70172185 5.33000265,2.51761589" id="Fill-3" fill="#F4B103"></path>
                <path d="M5.33000265,2.51761589 C7.43691656,3.70172185 9.0466649,5.37388079 10.211698,7.48439735 C10.3020821,7.64810596 10.3297377,7.8575894 10.5252344,7.95210596 C10.7142675,8.87396026 10.9033007,9.79592053 11.1189298,10.8475762 C11.550506,9.66007947 11.9412874,8.58945695 12.3287841,7.51766887 C13.137155,5.28190728 13.9507179,3.04784106 14.7436185,0.806569536 C14.8601748,0.477350993 14.9964397,0.334834437 15.3711152,0.344688742 C16.4825325,0.373721854 17.5953272,0.363125828 18.7073801,0.350304636 C19.0483603,0.346384106 19.1953272,0.373298013 19.0261086,0.778913907 C17.0056583,5.62299338 14.9981351,10.4724768 12.9978172,15.3248212 C12.8915391,15.5824106 12.7569695,15.6623046 12.4902675,15.6593377 C11.3605192,15.6467285 10.230453,15.6474702 9.10070464,15.6588079 C8.83251921,15.661457 8.69614834,15.5970331 8.6218702,15.309351 C7.53959205,11.1135364 6.44375099,6.92121854 5.35267815,2.72762914 C5.3351947,2.66023841 5.33710199,2.58776159 5.33000265,2.51761589" id="Fill-5" fill="#1357B0"></path>
                <path d="M20.2121007,15.6539868 C19.6827232,15.6539868 19.1530278,15.6433907 18.6240742,15.6583311 C18.3494252,15.6660662 18.2500344,15.5995232 18.2998358,15.2984901 C18.9488424,11.3696954 19.5869351,7.43909934 20.2288424,3.50903311 C20.3794119,2.58739073 20.5518093,1.66882119 20.6769483,0.743788079 C20.7208159,0.419337748 20.8497695,0.345165563 21.1490013,0.349403974 C22.189955,0.364238411 23.2314384,0.364344371 24.2722861,0.349721854 C24.6044715,0.344953642 24.7227232,0.386913907 24.656604,0.783417219 C23.9780344,4.85027815 23.3250013,8.92148344 22.664657,12.9914172 C22.5433325,13.7392848 22.3988026,14.4843974 22.3093722,15.2360795 C22.2676238,15.5863841 22.1229881,15.6731656 21.8000212,15.6599205 C21.2715974,15.6380927 20.7414781,15.6539868 20.2121007,15.6539868" id="Fill-7" fill="#1357B0"></path>
                <g id="Group-11">
                    <mask id="mask-2" fill="white">
                        <use xlink:href="#path-1"></use>
                    </mask>
                    <g id="Clip-10"></g>
                    <path d="M43.951449,4.72674967 C43.9160583,4.72049801 43.8805616,4.71435232 43.8451709,4.70810066 C43.2106808,6.44256424 42.5788397,8.17808742 41.9392636,9.91074967 C41.8412503,10.1762861 41.9196609,10.2574517 42.1894358,10.2524715 C42.7716874,10.2416636 43.354257,10.2492927 43.9367205,10.2493987 C45.0854358,10.2493987 45.0905219,10.2483391 44.8595285,9.11382252 C44.5615682,7.65051126 44.2546013,6.18900132 43.951449,4.72674967 M48.0070781,15.6536901 C47.8305483,15.653796 47.6540185,15.653796 47.4774887,15.653796 C46.1829722,15.653796 46.1829722,15.653796 45.9323762,14.3591735 C45.7399523,13.3655841 45.7399523,13.3655841 44.7312106,13.3655841 C43.5307868,13.3655841 42.330257,13.3782993 41.130151,13.3573192 C40.7970119,13.3514914 40.6214358,13.4381669 40.5215152,13.7695046 C40.3641642,14.2913589 40.148747,14.7954119 39.9759258,15.3130278 C39.8911576,15.5666967 39.7548927,15.6639682 39.4783364,15.6601536 C38.3664954,15.6445775 37.2537007,15.6332397 36.1422834,15.6623788 C35.588853,15.6768954 35.7945219,15.4124185 35.9011179,15.1582199 C37.386045,11.6176636 38.8711841,8.07721325 40.3571709,4.53718675 C40.7524026,3.59541192 41.1796344,2.66571656 41.5391576,1.71048477 C41.8937007,0.768921854 42.5732238,0.368498013 43.5309987,0.358431788 C44.4488265,0.348789404 45.367396,0.373584106 46.2845881,0.346140397 C46.6191046,0.336074172 46.7030252,0.491623841 46.7589722,0.761610596 C47.5020715,4.35016689 48.250151,7.93776954 48.9960053,11.525796 C49.2577272,12.7850278 49.5040848,14.0477563 49.7855152,15.3026437 C49.8560848,15.6169219 49.7651709,15.6657695 49.4897801,15.6577166 C48.9958993,15.643094 48.5012768,15.6535841 48.0070781,15.6536901" id="Fill-9" fill="#1357B0" mask="url(#mask-2)"></path>
                </g>
            </g>
        </g>
    </g>
</svg>