<svg width="71" height="20" viewBox="0 0 71 20" xmlns="http://www.w3.org/2000/svg" xmlns:xlink="http://www.w3.org/1999/xlink"><title>beeline</title><defs><path id="a" d="M0 .115h70.685V20H0"/><path id="c" d="M0 .115h70.685V20H0"/><path id="e" d="M0 .115h70.685V20H0"/></defs><g fill="none" fill-rule="evenodd"><path d="M43.26 8.298c-1.486 0-2.327.854-2.538 2.567l-.17 1.753c-.054.73-.406 1.137-1.052 1.235-.17 0-.253.084-.253.25v.704c0 .154.084.24.253.24 1.418 0 2.203-.83 2.358-2.5l.17-1.542c.04-.59.152-.954.307-1.123.168-.21.506-.32.996-.32h1.123v5.175c0 .155.07.238.24.238h.814c.153 0 .237-.083.237-.238V8.55c0-.168-.084-.252-.237-.252H43.26zM34.085 12.17V8.55c0-.168-.084-.252-.252-.252h-.84c-.156 0-.24.084-.24.25v4.042c0 1.657.785 2.497 2.357 2.497.772 0 1.486-.28 2.174-.84l.14.59c.07.096.142.138.21.138h.59c.167 0 .25-.07.25-.21V8.55c0-.168-.096-.252-.278-.252h-.8c-.167 0-.252.084-.252.25v4.35c-.492.59-1.11.885-1.825.885-.83 0-1.235-.548-1.235-1.614M28.43 10.12c1.292 0 1.938.617 1.938 1.84 0 1.192-.646 1.78-1.937 1.795h-.42c-.87-.014-1.304-.49-1.304-1.446v-2.19h1.725zm3.34 1.84c0-2.063-1.123-3.1-3.38-3.1h-1.684V6.823h3.9c.168 0 .24-.098.252-.28V5.8c-.013-.183-.084-.28-.253-.28h-5.022c-.168 0-.252.097-.252.28v6.37c0 1.893.9 2.847 2.68 2.847h.24c2.342 0 3.52-1.023 3.52-3.057zM65.23 10.977h-3.043V8.55c0-.168-.084-.252-.253-.252h-.827c-.155 0-.224.084-.21.25v6.19c-.014.154.055.237.21.237h.827c.17 0 .253-.083.253-.238V12.17h3.044v2.567c0 .155.1.238.27.238h.798c.168 0 .253-.083.253-.238V8.55c0-.168-.084-.252-.252-.252h-.8c-.167 0-.267.084-.267.25v2.43zM59.1 8.298h-.812c-.184 0-.282.084-.282.25v4.35c-.49.59-1.096.885-1.823.885-.814 0-1.236-.548-1.236-1.614V8.55c0-.168-.084-.252-.237-.252h-.814c-.184 0-.282.084-.282.25v4.042c0 1.657.786 2.497 2.358 2.497.84 0 1.573-.28 2.19-.84l.126.59c.07.096.14.138.224.138h.588c.155 0 .24-.07.24-.21V8.55c0-.168-.085-.252-.24-.252M59.31 5.8c0-.183-.084-.28-.25-.28h-5.164c-.184 0-.282.097-.282.28v.743c0 .183.098.28.282.28h5.164c.166 0 .25-.097.25-.28V5.8zM49.477 13.853c-.758 0-1.124-.337-1.124-1.01-.014-.66.337-1.01 1.053-1.066l1.473-.14.026 1.796c-.49.28-.967.42-1.43.42m1.235-4.292c.127.168.196.45.196.84v.155l-1.473.07c-1.655.112-2.482.843-2.482 2.218 0 1.487.844 2.244 2.527 2.244.604 0 1.178-.154 1.71-.49l.114.24c.098.096.182.138.238.138h.506c.126 0 .195-.07.195-.21V10.4c0-1.556-.855-2.342-2.596-2.342-.743 0-1.416.113-1.992.352-.097.084-.156.168-.156.238v.744c.03.112.07.182.114.21.097.014.168.027.21.027.533-.21 1.152-.31 1.824-.31.52 0 .872.085 1.067.24M70.685 8.34l-.03-.042h-.278l-.422.98-.42-.98h-.28v1.557h.237V8.76l.35.87h.21l.396-.87-.042 1.053.042.042h.208l.03-.042zM69.044 8.34l-.042-.042h-1.025v.25h.392v1.265l.042.042h.197V8.55H69l.042-.043z" fill="#221F20"/><g><mask id="b" fill="#fff"><use xlink:href="#a"/></mask><path d="M9.944.115c5.49 0 9.942 4.452 9.942 9.942S15.434 20 9.944 20 0 15.547 0 10.057C0 4.567 4.454.115 9.944.115" fill="#FFF100" mask="url(#b)"/></g><path d="M2.504 3.464c4.803-.408 10.073-.423 14.88 0a9.916 9.916 0 0 0-7.44-3.35 9.913 9.913 0 0 0-7.44 3.35" fill="#221F20"/><g><mask id="d" fill="#fff"><use xlink:href="#c"/></mask><path d="M17.48 16.538c-4.664.362-10.21.388-15.076 0A9.92 9.92 0 0 0 9.944 20a9.914 9.914 0 0 0 7.537-3.462" fill="#221F20" mask="url(#d)"/></g><g><mask id="f" fill="#fff"><use xlink:href="#e"/></mask><path d="M.326 7.53c6.468-.114 12.775-.132 19.236 0a9.998 9.998 0 0 1 .08 4.73c-6.544.19-12.99.142-19.396 0A10.02 10.02 0 0 1 0 10.058c0-.873.113-1.72.326-2.526" fill="#221F20" mask="url(#f)"/></g></g></svg>