<?xml version="1.0" encoding="UTF-8" standalone="no"?>
<svg width="42px" height="20px" viewBox="0 0 42 20" version="1.1" xmlns="http://www.w3.org/2000/svg" xmlns:xlink="http://www.w3.org/1999/xlink">
    <!-- Generator: Sketch 3.7.2 (28276) - http://www.bohemiancoding.com/sketch -->
    <title>MTS</title>
    <desc>Created with Sketch.</desc>
    <defs></defs>
    <g id="Главная-страница" stroke="none" stroke-width="1" fill="none" fill-rule="evenodd">
        <g id="1920_Index_neavtorizovan" transform="translate(-1607.000000, -6715.000000)">
            <g id="footer" transform="translate(-1.000000, 6582.000000)">
                <g id="money" transform="translate(1375.000000, 83.000000)">
                    <g id="MTS" transform="translate(233.329268, 50.000000)">
                        <polygon id="Fill-1" fill="#DB322A" points="0.0490243902 0.00914634146 19.9545122 0.00914634146 19.9545122 19.9134146 0.0490243902 19.9134146"></polygon>
                        <path d="M10.0017073,2.05353659 C12.8303659,2.05353659 15.8532927,7.11085366 15.8532927,11.4902439 C15.8532927,14.9302439 13.8310976,17.8647561 10.0017073,17.8647561 C6.16926829,17.8647561 4.15243902,14.9302439 4.15243902,11.4902439 C4.15243902,7.11085366 7.17243902,2.05353659 10.0017073,2.05353659" id="Fill-2" fill="#FFFFFF"></path>
                        <polygon id="Fill-3" fill="#DB322A" points="21.3673171 0.0176829268 41.2708537 0.0176829268 41.2708537 19.9217073 21.3673171 19.9217073"></polygon>
                        <polyline id="Fill-4" fill="#FFFFFF" points="22.8242683 7.6104878 24.920122 7.6104878 25.6046341 10.4215854 25.6159756 10.4215854 26.3013415 7.6104878 28.3954878 7.6104878 28.3954878 12.3887805 27.0029268 12.3887805 27.0029268 9.32207317 26.9882927 9.32207317 26.1597561 12.3887805 25.0608537 12.3887805 24.2306098 9.32207317 24.2185366 9.32207317 24.2185366 12.3887805 22.8242683 12.3887805 22.8242683 7.6104878"></polyline>
                        <polyline id="Fill-5" fill="#FFFFFF" points="30.5369512 8.83426829 29.1989024 8.83426829 29.1989024 7.6104878 33.349878 7.6104878 33.349878 8.83426829 32.0085366 8.83426829 32.0085366 12.3887805 30.5369512 12.3887805 30.5369512 8.83426829"></polyline>
                        <path d="M36.9041463,9.38878049 C36.877439,9.21658537 36.7421951,8.68670732 36.1358537,8.68670732 C35.4447561,8.68670732 35.2234146,9.35682927 35.2234146,10.0007317 C35.2234146,10.6437805 35.4447561,11.3119512 36.1358537,11.3119512 C36.6290244,11.3119512 36.8243902,10.9640244 36.9107317,10.5131707 L38.3570732,10.5131707 C38.3570732,11.4771951 37.5732927,12.5036585 36.1741463,12.5036585 C34.6268293,12.5036585 33.7519512,11.412439 33.7519512,10.0007317 C33.7519512,8.49341463 34.7018293,7.49731707 36.1741463,7.49731707 C37.4869512,7.50268293 38.2104878,8.19170732 38.335122,9.38878049 L36.9041463,9.38878049" id="Fill-6" fill="#FFFFFF"></path>
                    </g>
                </g>
            </g>
        </g>
    </g>
</svg>