<svg width="150" height="450" xmlns="http://www.w3.org/2000/svg">
 <!-- Created with Method Draw - http://github.com/duopixel/Method-Draw/ -->

 <g>
  <title>Layer 1</title>
  <g stroke="null" id="svg_20">
   <path stroke="null" id="svg_19" fill-rule="evenodd" fill="#fd6462" d="m76.000001,306.500055c-39.483873,0 -71.499971,32.016098 -71.499971,71.499971s32.016098,71.499971 71.499971,71.499971s71.499971,-32.016098 71.499971,-71.499971s-32.016098,-71.499971 -71.499971,-71.499971zm29.084599,58.570393c0.027806,0.611722 0.039722,1.223444 0.039722,1.819277c0,18.617798 -14.160967,40.079706 -40.063817,40.079706c-7.956358,0 -15.360577,-2.327721 -21.585047,-6.335692c1.092361,0.135056 2.224444,0.186694 3.356526,0.186694a28.202766,28.202766 0 0 0 17.489687,-6.025859a14.109328,14.109328 0 0 1 -13.14805,-9.771663a14.14905,14.14905 0 0 0 6.355553,-0.246278a14.093439,14.093439 0 0 1 -11.30494,-13.807439l0,-0.170805a14.121244,14.121244 0 0 0 6.383359,1.763666a14.07755,14.07755 0 0 1 -6.26022,-11.725995c0,-2.581943 0.691166,-5.004998 1.906666,-7.082469a40.039984,40.039984 0 0 0 29.025016,14.725022a14.089467,14.089467 0 0 1 23.992213,-12.846161a28.282211,28.282211 0 0 0 8.945441,-3.41611a14.14905,14.14905 0 0 1 -6.18872,7.793497a28.290155,28.290155 0 0 0 8.087441,-2.224444a28.552322,28.552322 0 0 1 -7.022886,7.289025l-0.007944,-0.003972z"/>
  </g>
  <g stroke="null" id="svg_22">
   <path stroke="null" id="svg_21" fill-rule="evenodd" fill="#41AAE4" d="m76.000001,2.500055c-39.483873,0 -71.499972,32.016098 -71.499972,71.499971s32.016099,71.499971 71.499972,71.499971s71.499971,-32.016098 71.499971,-71.499971s-32.016098,-71.499971 -71.499971,-71.499971zm29.084599,58.570393c0.027806,0.611722 0.039722,1.223444 0.039722,1.819277c0,18.617798 -14.160966,40.079706 -40.063817,40.079706c-7.956358,0 -15.360577,-2.327721 -21.585047,-6.335692c1.092361,0.135056 2.224444,0.186694 3.356527,0.186694a28.202766,28.202766 0 0 0 17.489687,-6.025858a14.109328,14.109328 0 0 1 -13.14805,-9.771663a14.14905,14.14905 0 0 0 6.355553,-0.246278a14.093439,14.093439 0 0 1 -11.30494,-13.807439l0,-0.170805a14.121244,14.121244 0 0 0 6.383358,1.763666a14.07755,14.07755 0 0 1 -6.260219,-11.725995c0,-2.581944 0.691166,-5.004998 1.906666,-7.08247a40.039984,40.039984 0 0 0 29.025016,14.725022a14.089467,14.089467 0 0 1 23.992212,-12.846161a28.282211,28.282211 0 0 0 8.945441,-3.41611a14.14905,14.14905 0 0 1 -6.18872,7.793497a28.290155,28.290155 0 0 0 8.087441,-2.224444a28.552322,28.552322 0 0 1 -7.022886,7.289025l-0.007944,-0.003972z"/>
  </g>
 </g>
</svg>