<svg width="150" height="450" xmlns="http://www.w3.org/2000/svg">
 <!-- Created with Method Draw - http://github.com/duopixel/Method-Draw/ -->

 <g>
  <title>Layer 1</title>
  <g stroke="null" id="svg_5">
   <path stroke="null" id="svg_4" fill-rule="evenodd" fill="#fd6462" d="m75.499987,306.086402c-39.436169,0 -71.413585,31.977417 -71.413585,71.413585s31.977417,71.413585 71.413585,71.413585s71.413585,-31.977417 71.413585,-71.413585s-31.977417,-71.413585 -71.413585,-71.413585zm16.917085,49.354722l-10.735842,0c-1.269575,0 -2.685944,1.666317 -2.685944,3.888073l0,7.756309l13.433689,0l-2.03132,11.053236l-11.406337,0l0,33.191448l-12.656074,0l0,-33.195415l-11.505522,0l0,-11.049269l11.497587,0l0,-6.506571c0,-9.32344 6.466897,-16.901215 15.353921,-16.901215l10.735842,0l0,11.759437l0,0.003967z"/>
  </g>
  <g stroke="null" id="svg_7">
   <path stroke="null" id="svg_6" fill-rule="evenodd" fill="#4B6BAE" d="m75.499987,3.086402c-39.436168,0 -71.413585,31.977417 -71.413585,71.413585s31.977417,71.413586 71.413585,71.413586s71.413586,-31.977417 71.413586,-71.413586s-31.977417,-71.413585 -71.413586,-71.413585zm16.917085,49.354722l-10.735842,0c-1.269575,0 -2.685944,1.666317 -2.685944,3.888073l0,7.756309l13.433689,0l-2.03132,11.053236l-11.406337,0l0,33.191448l-12.656074,0l0,-33.195415l-11.505522,0l0,-11.049269l11.497587,0l0,-6.506571c0,-9.32344 6.466897,-16.901215 15.353921,-16.901215l10.735842,0l0,11.759437l0,0.003967z"/>
  </g>
 </g>
</svg>